<svg xmlns="http://www.w3.org/2000/svg" xmlns:xlink="http://www.w3.org/1999/xlink" width="230" zoomAndPan="magnify" viewBox="0 0 172.5 44.999999" height="60" preserveAspectRatio="xMidYMid meet" version="1.0"><defs><g/><clipPath id="840391b4eb"><path d="M 23 2.195312 L 39.75 2.195312 L 39.75 42.695312 L 23 42.695312 Z M 23 2.195312 " clip-rule="nonzero"/></clipPath><clipPath id="4e7450c1ee"><path d="M 5.25 2.195312 L 22 2.195312 L 22 42.695312 L 5.25 42.695312 Z M 5.25 2.195312 " clip-rule="nonzero"/></clipPath></defs><g fill="#ffffff" fill-opacity="1"><g transform="translate(44.132592, 18.093863)"><g><path d="M 9.671875 -1.0625 L 11.859375 -0.328125 L 11.859375 0.03125 L 5.203125 0 L 5.203125 -0.328125 L 7.359375 -1.0625 L 7.359375 -15.046875 L 3.234375 -15.046875 L 1.734375 -12.78125 L 1.296875 -12.78125 L 1.96875 -15.890625 L 15.078125 -15.890625 L 15.75 -12.78125 L 15.296875 -12.78125 L 13.8125 -15.046875 L 9.671875 -15.046875 Z M 9.671875 -1.0625 "/></g></g></g><g fill="#ffffff" fill-opacity="1"><g transform="translate(62.460614, 18.093863)"><g><path d="M 3.109375 -14.875 L 1.609375 -15.5 L 1.609375 -15.890625 L 6.765625 -15.890625 L 6.765625 -15.46875 L 5.25 -14.90625 L 5.25 -8.5625 L 14.40625 -8.5625 L 14.40625 -14.875 L 12.859375 -15.421875 L 12.859375 -15.890625 L 18.03125 -15.890625 L 18.03125 -15.453125 L 16.515625 -14.875 L 16.515625 -1.140625 L 18.03125 -0.375 L 18.03125 0 L 12.859375 0 L 12.859375 -0.375 L 14.40625 -1.140625 L 14.40625 -7.609375 L 5.25 -7.609375 L 5.25 -1.171875 L 6.765625 -0.375 L 6.765625 0 L 1.640625 0 L 1.640625 -0.34375 L 3.109375 -1.171875 Z M 3.109375 -14.875 "/></g></g></g><g fill="#ffffff" fill-opacity="1"><g transform="translate(83.076413, 18.093863)"><g><path d="M 1.859375 0.03125 L 1.859375 -0.375 L 3.359375 -1.140625 L 3.359375 -14.671875 L 1.859375 -15.578125 L 1.859375 -15.890625 L 13.953125 -15.890625 L 14.484375 -12.71875 L 14 -12.71875 L 12.484375 -15.046875 C 7.910156 -15.046875 5.625 -15.039062 5.625 -15.03125 L 5.625 -8.625 L 11.390625 -8.625 L 10.671875 -7.71875 L 5.625 -7.71875 L 5.625 -0.84375 L 12.484375 -0.84375 L 13.984375 -3.109375 L 14.484375 -3.109375 L 13.953125 0 Z M 1.859375 0.03125 "/></g></g></g><g fill="#ffffff" fill-opacity="1"><g transform="translate(100.459486, 18.093863)"><g/></g></g><g fill="#ffffff" fill-opacity="1"><g transform="translate(109.462334, 18.093863)"><g><path d="M 21.296875 -15.890625 L 21.296875 -15.546875 L 20 -14.96875 L 20 -1.046875 L 21.71875 -0.328125 L 21.71875 0.03125 L 15.96875 0.03125 L 15.96875 -0.328125 L 17.78125 -1.0625 L 17.78125 -13.53125 L 11.765625 -0.125 L 11 -0.125 L 4.953125 -13.40625 L 4.90625 -1.0625 L 6.5625 -0.328125 L 6.546875 0.03125 L 2.1875 0.03125 L 2.1875 -0.328125 L 3.953125 -1.0625 L 3.984375 -14.96875 L 2.640625 -15.546875 L 2.640625 -15.890625 L 6.046875 -15.890625 L 11.96875 -3.015625 L 17.8125 -15.890625 Z M 21.296875 -15.890625 "/></g></g></g><g fill="#ffffff" fill-opacity="1"><g transform="translate(133.882805, 18.093863)"><g><path d="M 1.859375 0.03125 L 1.859375 -0.375 L 3.359375 -1.140625 L 3.359375 -14.671875 L 1.859375 -15.578125 L 1.859375 -15.890625 L 13.953125 -15.890625 L 14.484375 -12.71875 L 14 -12.71875 L 12.484375 -15.046875 C 7.910156 -15.046875 5.625 -15.039062 5.625 -15.03125 L 5.625 -8.625 L 11.390625 -8.625 L 10.671875 -7.71875 L 5.625 -7.71875 L 5.625 -0.84375 L 12.484375 -0.84375 L 13.984375 -3.109375 L 14.484375 -3.109375 L 13.953125 0 Z M 1.859375 0.03125 "/></g></g></g><g fill="#ffffff" fill-opacity="1"><g transform="translate(151.265875, 18.093863)"><g><path d="M 14.84375 -14.875 L 12.890625 -15.546875 L 12.890625 -15.890625 L 17.734375 -15.890625 L 17.734375 -15.546875 L 15.84375 -14.875 L 15.84375 0 L 15.171875 0 L 4.578125 -13.65625 L 4.578125 -1.046875 L 6.296875 -0.296875 L 6.296875 0.046875 L 1.84375 0.046875 L 1.84375 -0.296875 L 3.5625 -1.046875 L 3.5625 -14.875 L 1.84375 -15.546875 L 1.84375 -15.890625 L 5.546875 -15.890625 C 6.785156 -14.484375 8.171875 -12.765625 9.703125 -10.734375 C 11.242188 -8.703125 12.957031 -6.34375 14.84375 -3.65625 Z M 14.84375 -14.875 "/></g></g></g><g fill="#ffffff" fill-opacity="1"><g transform="translate(171.773205, 18.093863)"><g/></g></g><g fill="#ffffff" fill-opacity="1"><g transform="translate(44.132592, 41.343861)"><g><path d="M 3.109375 -14.875 L 1.609375 -15.5 L 1.609375 -15.890625 L 6.765625 -15.890625 L 6.765625 -15.46875 L 5.25 -14.90625 L 5.25 -8.5625 L 14.40625 -8.5625 L 14.40625 -14.875 L 12.859375 -15.421875 L 12.859375 -15.890625 L 18.03125 -15.890625 L 18.03125 -15.453125 L 16.515625 -14.875 L 16.515625 -1.140625 L 18.03125 -0.375 L 18.03125 0 L 12.859375 0 L 12.859375 -0.375 L 14.40625 -1.140625 L 14.40625 -7.609375 L 5.25 -7.609375 L 5.25 -1.171875 L 6.765625 -0.375 L 6.765625 0 L 1.640625 0 L 1.640625 -0.34375 L 3.109375 -1.171875 Z M 3.109375 -14.875 "/></g></g></g><g fill="#ffffff" fill-opacity="1"><g transform="translate(64.748391, 41.343861)"><g><path d="M 1.984375 -7.9375 C 1.984375 -10.820312 2.640625 -12.921875 3.953125 -14.234375 C 5.273438 -15.554688 7.132812 -16.21875 9.53125 -16.21875 C 10.570312 -16.21875 11.554688 -16.054688 12.484375 -15.734375 C 13.410156 -15.421875 14.195312 -14.921875 14.84375 -14.234375 C 15.5 -13.535156 15.992188 -12.675781 16.328125 -11.65625 C 16.671875 -10.632812 16.84375 -9.394531 16.84375 -7.9375 C 16.84375 -6.476562 16.671875 -5.226562 16.328125 -4.1875 C 15.992188 -3.15625 15.5 -2.289062 14.84375 -1.59375 C 14.195312 -0.894531 13.410156 -0.378906 12.484375 -0.046875 C 11.554688 0.285156 10.570312 0.453125 9.53125 0.453125 C 8.351562 0.453125 7.296875 0.285156 6.359375 -0.046875 C 5.429688 -0.378906 4.644531 -0.890625 4 -1.578125 C 3.351562 -2.265625 2.851562 -3.132812 2.5 -4.1875 C 2.15625 -5.238281 1.984375 -6.488281 1.984375 -7.9375 Z M 14.578125 -7.90625 C 14.578125 -9.195312 14.414062 -10.316406 14.09375 -11.265625 C 13.78125 -12.210938 13.375 -12.992188 12.875 -13.609375 C 12.382812 -14.234375 11.820312 -14.695312 11.1875 -15 C 10.5625 -15.300781 9.929688 -15.453125 9.296875 -15.453125 C 8.722656 -15.453125 8.140625 -15.328125 7.546875 -15.078125 C 6.960938 -14.835938 6.429688 -14.425781 5.953125 -13.84375 C 5.484375 -13.269531 5.097656 -12.5 4.796875 -11.53125 C 4.503906 -10.570312 4.359375 -9.363281 4.359375 -7.90625 C 4.359375 -6.445312 4.523438 -5.234375 4.859375 -4.265625 C 5.203125 -3.304688 5.640625 -2.535156 6.171875 -1.953125 C 6.703125 -1.378906 7.289062 -0.972656 7.9375 -0.734375 C 8.582031 -0.492188 9.21875 -0.375 9.84375 -0.375 C 10.425781 -0.375 11 -0.519531 11.5625 -0.8125 C 12.125 -1.113281 12.628906 -1.578125 13.078125 -2.203125 C 13.523438 -2.828125 13.882812 -3.609375 14.15625 -4.546875 C 14.4375 -5.492188 14.578125 -6.613281 14.578125 -7.90625 Z M 14.578125 -7.90625 "/></g></g></g><g fill="#ffffff" fill-opacity="1"><g transform="translate(84.692776, 41.343861)"><g><path d="M 1.984375 -7.9375 C 1.984375 -10.820312 2.640625 -12.921875 3.953125 -14.234375 C 5.273438 -15.554688 7.132812 -16.21875 9.53125 -16.21875 C 10.570312 -16.21875 11.554688 -16.054688 12.484375 -15.734375 C 13.410156 -15.421875 14.195312 -14.921875 14.84375 -14.234375 C 15.5 -13.535156 15.992188 -12.675781 16.328125 -11.65625 C 16.671875 -10.632812 16.84375 -9.394531 16.84375 -7.9375 C 16.84375 -6.476562 16.671875 -5.226562 16.328125 -4.1875 C 15.992188 -3.15625 15.5 -2.289062 14.84375 -1.59375 C 14.195312 -0.894531 13.410156 -0.378906 12.484375 -0.046875 C 11.554688 0.285156 10.570312 0.453125 9.53125 0.453125 C 8.351562 0.453125 7.296875 0.285156 6.359375 -0.046875 C 5.429688 -0.378906 4.644531 -0.890625 4 -1.578125 C 3.351562 -2.265625 2.851562 -3.132812 2.5 -4.1875 C 2.15625 -5.238281 1.984375 -6.488281 1.984375 -7.9375 Z M 14.578125 -7.90625 C 14.578125 -9.195312 14.414062 -10.316406 14.09375 -11.265625 C 13.78125 -12.210938 13.375 -12.992188 12.875 -13.609375 C 12.382812 -14.234375 11.820312 -14.695312 11.1875 -15 C 10.5625 -15.300781 9.929688 -15.453125 9.296875 -15.453125 C 8.722656 -15.453125 8.140625 -15.328125 7.546875 -15.078125 C 6.960938 -14.835938 6.429688 -14.425781 5.953125 -13.84375 C 5.484375 -13.269531 5.097656 -12.5 4.796875 -11.53125 C 4.503906 -10.570312 4.359375 -9.363281 4.359375 -7.90625 C 4.359375 -6.445312 4.523438 -5.234375 4.859375 -4.265625 C 5.203125 -3.304688 5.640625 -2.535156 6.171875 -1.953125 C 6.703125 -1.378906 7.289062 -0.972656 7.9375 -0.734375 C 8.582031 -0.492188 9.21875 -0.375 9.84375 -0.375 C 10.425781 -0.375 11 -0.519531 11.5625 -0.8125 C 12.125 -1.113281 12.628906 -1.578125 13.078125 -2.203125 C 13.523438 -2.828125 13.882812 -3.609375 14.15625 -4.546875 C 14.4375 -5.492188 14.578125 -6.613281 14.578125 -7.90625 Z M 14.578125 -7.90625 "/></g></g></g><g fill="#ffffff" fill-opacity="1"><g transform="translate(104.637162, 41.343861)"><g><path d="M 14.484375 -8.140625 C 14.484375 -9.378906 14.328125 -10.425781 14.015625 -11.28125 C 13.710938 -12.132812 13.28125 -12.832031 12.71875 -13.375 C 12.425781 -13.664062 12.128906 -13.914062 11.828125 -14.125 C 11.535156 -14.34375 11.203125 -14.523438 10.828125 -14.671875 C 10.453125 -14.828125 10.03125 -14.945312 9.5625 -15.03125 C 9.101562 -15.113281 8.578125 -15.15625 7.984375 -15.15625 L 5.921875 -15.15625 L 5.921875 -0.875 L 9.15625 -0.875 C 11.039062 -0.875 12.398438 -1.460938 13.234375 -2.640625 C 14.066406 -3.828125 14.484375 -5.660156 14.484375 -8.140625 Z M 8.6875 -15.890625 C 9.925781 -15.890625 11.046875 -15.75 12.046875 -15.46875 C 13.054688 -15.1875 13.910156 -14.734375 14.609375 -14.109375 C 15.316406 -13.492188 15.863281 -12.691406 16.25 -11.703125 C 16.644531 -10.710938 16.84375 -9.503906 16.84375 -8.078125 C 16.84375 -5.460938 16.207031 -3.460938 14.9375 -2.078125 C 13.664062 -0.691406 11.738281 0 9.15625 0 C 8.457031 0 7.722656 -0.00390625 6.953125 -0.015625 C 6.179688 -0.0351562 5.476562 -0.046875 4.84375 -0.046875 L 1.8125 -0.046875 L 1.8125 -0.421875 L 3.75 -1.21875 L 3.75 -14.75 L 1.8125 -15.46875 L 1.8125 -15.890625 Z M 8.6875 -15.890625 "/></g></g></g><g clip-path="url(#840391b4eb)"><path fill="#ffffff" d="M 39.746094 10.136719 L 36.027344 9.414062 C 32.671875 25.285156 25.261719 39.0625 25.261719 39.0625 C 25.261719 39.0625 31.753906 24.929688 34.238281 9.066406 L 37.066406 8.386719 C 34.386719 6.914062 31.410156 2.195312 31.410156 2.195312 C 31.410156 2.195312 27.570312 4.777344 23.945312 8.816406 C 23.945312 8.816406 27.628906 7.25 31.011719 6.445312 C 30.230469 13.925781 28.160156 26.929688 23.667969 42.695312 C 23.667969 42.695312 33.851562 28.042969 39.746094 10.136719 " fill-opacity="1" fill-rule="nonzero"/></g><g clip-path="url(#4e7450c1ee)"><path fill="#ffffff" d="M 5.253906 10.136719 L 8.972656 9.414062 C 12.328125 25.285156 19.734375 39.0625 19.734375 39.0625 C 19.734375 39.0625 13.246094 24.929688 10.761719 9.066406 L 7.933594 8.386719 C 10.613281 6.914062 13.589844 2.195312 13.589844 2.195312 C 13.589844 2.195312 17.429688 4.777344 21.054688 8.816406 C 21.054688 8.816406 17.371094 7.25 13.988281 6.445312 C 14.769531 13.925781 16.839844 26.929688 21.332031 42.695312 C 21.332031 42.695312 11.148438 28.042969 5.253906 10.136719 " fill-opacity="1" fill-rule="nonzero"/></g><path fill="#ffffff" d="M 23.484375 13.976562 L 23.003906 13.660156 L 23.507812 13.769531 L 24.257812 11.390625 L 22.5 9.992188 L 20.742188 11.390625 L 21.527344 13.878906 L 19.613281 27.203125 L 22.5 31.472656 L 25.386719 27.203125 L 23.484375 13.976562 " fill-opacity="1" fill-rule="nonzero"/></svg>