<svg xmlns="http://www.w3.org/2000/svg" xmlns:xlink="http://www.w3.org/1999/xlink" width="230" zoomAndPan="magnify" viewBox="0 0 172.5 44.999999" height="60" preserveAspectRatio="xMidYMid meet" version="1.0"><defs><g/><clipPath id="ab4b416eb8"><path d="M 10.421875 1.53125 L 31.421875 1.53125 L 31.421875 25 L 10.421875 25 Z M 10.421875 1.53125 " clip-rule="nonzero"/></clipPath><clipPath id="fbd2fdfe77"><path d="M 11 24 L 27 24 L 27 43.53125 L 11 43.53125 Z M 11 24 " clip-rule="nonzero"/></clipPath></defs><g fill="#ffffff" fill-opacity="1"><g transform="translate(33.551983, 21.022093)"><g><path d="M 10.0625 -1.109375 L 12.34375 -0.34375 L 12.34375 0.03125 L 5.40625 0 L 5.40625 -0.34375 L 7.65625 -1.109375 L 7.65625 -15.65625 L 3.359375 -15.65625 L 1.8125 -13.296875 L 1.34375 -13.296875 L 2.046875 -16.53125 L 15.6875 -16.53125 L 16.375 -13.296875 L 15.90625 -13.296875 L 14.359375 -15.65625 L 10.0625 -15.65625 Z M 10.0625 -1.109375 "/></g></g></g><g fill="#ffffff" fill-opacity="1"><g transform="translate(52.62193, 21.022093)"><g><path d="M 3.234375 -15.46875 L 1.6875 -16.125 L 1.6875 -16.53125 L 7.03125 -16.53125 L 7.03125 -16.09375 L 5.453125 -15.5 L 5.453125 -8.90625 L 14.984375 -8.90625 L 14.984375 -15.46875 L 13.375 -16.046875 L 13.375 -16.53125 L 18.765625 -16.53125 L 18.765625 -16.0625 L 17.1875 -15.46875 L 17.1875 -1.1875 L 18.765625 -0.390625 L 18.765625 0 L 13.375 0 L 13.375 -0.390625 L 14.984375 -1.1875 L 14.984375 -7.921875 L 5.453125 -7.921875 L 5.453125 -1.21875 L 7.03125 -0.390625 L 7.03125 0 L 1.703125 0 L 1.703125 -0.359375 L 3.234375 -1.21875 Z M 3.234375 -15.46875 "/></g></g></g><g fill="#ffffff" fill-opacity="1"><g transform="translate(74.072362, 21.022093)"><g><path d="M 1.9375 0.03125 L 1.9375 -0.390625 L 3.5 -1.1875 L 3.5 -15.265625 L 1.9375 -16.203125 L 1.9375 -16.53125 L 14.515625 -16.53125 L 15.0625 -13.21875 L 14.5625 -13.21875 L 12.984375 -15.65625 C 8.222656 -15.65625 5.84375 -15.644531 5.84375 -15.625 L 5.84375 -8.984375 L 11.84375 -8.984375 L 11.09375 -8.015625 L 5.84375 -8.015625 L 5.84375 -0.875 L 12.984375 -0.875 L 14.546875 -3.234375 L 15.0625 -3.234375 L 14.515625 0 Z M 1.9375 0.03125 "/></g></g></g><g fill="#ffffff" fill-opacity="1"><g transform="translate(92.159055, 21.022093)"><g/></g></g><g fill="#ffffff" fill-opacity="1"><g transform="translate(101.525911, 21.022093)"><g><path d="M 22.15625 -16.53125 L 22.15625 -16.171875 L 20.796875 -15.578125 L 20.796875 -1.09375 L 22.59375 -0.34375 L 22.59375 0.03125 L 16.609375 0.03125 L 16.609375 -0.34375 L 18.5 -1.109375 L 18.5 -14.078125 L 12.234375 -0.125 L 11.4375 -0.125 L 5.15625 -13.953125 L 5.09375 -1.109375 L 6.828125 -0.34375 L 6.8125 0.03125 L 2.28125 0.03125 L 2.28125 -0.34375 L 4.109375 -1.109375 L 4.140625 -15.578125 L 2.75 -16.171875 L 2.75 -16.53125 L 6.28125 -16.53125 L 12.453125 -3.125 L 18.53125 -16.53125 Z M 22.15625 -16.53125 "/></g></g></g><g fill="#ffffff" fill-opacity="1"><g transform="translate(126.935208, 21.022093)"><g><path d="M 1.9375 0.03125 L 1.9375 -0.390625 L 3.5 -1.1875 L 3.5 -15.265625 L 1.9375 -16.203125 L 1.9375 -16.53125 L 14.515625 -16.53125 L 15.0625 -13.21875 L 14.5625 -13.21875 L 12.984375 -15.65625 C 8.222656 -15.65625 5.84375 -15.644531 5.84375 -15.625 L 5.84375 -8.984375 L 11.84375 -8.984375 L 11.09375 -8.015625 L 5.84375 -8.015625 L 5.84375 -0.875 L 12.984375 -0.875 L 14.546875 -3.234375 L 15.0625 -3.234375 L 14.515625 0 Z M 1.9375 0.03125 "/></g></g></g><g fill="#ffffff" fill-opacity="1"><g transform="translate(145.021901, 21.022093)"><g><path d="M 15.453125 -15.46875 L 13.40625 -16.171875 L 13.40625 -16.53125 L 18.453125 -16.53125 L 18.453125 -16.171875 L 16.484375 -15.46875 L 16.484375 0 L 15.78125 0 L 4.765625 -14.203125 L 4.765625 -1.09375 L 6.546875 -0.3125 L 6.546875 0.046875 L 1.921875 0.046875 L 1.921875 -0.3125 L 3.703125 -1.09375 L 3.703125 -15.46875 L 1.921875 -16.171875 L 1.921875 -16.53125 L 5.765625 -16.53125 C 7.054688 -15.0625 8.5 -13.269531 10.09375 -11.15625 C 11.695312 -9.050781 13.484375 -6.597656 15.453125 -3.796875 Z M 15.453125 -15.46875 "/></g></g></g><g fill="#ffffff" fill-opacity="1"><g transform="translate(166.360568, 21.022093)"><g/></g></g><g fill="#ffffff" fill-opacity="1"><g transform="translate(33.551983, 42.022091)"><g><path d="M 3.234375 -15.46875 L 1.6875 -16.125 L 1.6875 -16.53125 L 7.03125 -16.53125 L 7.03125 -16.09375 L 5.453125 -15.5 L 5.453125 -8.90625 L 14.984375 -8.90625 L 14.984375 -15.46875 L 13.375 -16.046875 L 13.375 -16.53125 L 18.765625 -16.53125 L 18.765625 -16.0625 L 17.1875 -15.46875 L 17.1875 -1.1875 L 18.765625 -0.390625 L 18.765625 0 L 13.375 0 L 13.375 -0.390625 L 14.984375 -1.1875 L 14.984375 -7.921875 L 5.453125 -7.921875 L 5.453125 -1.21875 L 7.03125 -0.390625 L 7.03125 0 L 1.703125 0 L 1.703125 -0.359375 L 3.234375 -1.21875 Z M 3.234375 -15.46875 "/></g></g></g><g fill="#ffffff" fill-opacity="1"><g transform="translate(55.002415, 42.022091)"><g><path d="M 2.0625 -8.25 C 2.0625 -11.25 2.75 -13.4375 4.125 -14.8125 C 5.5 -16.1875 7.425781 -16.875 9.90625 -16.875 C 11 -16.875 12.023438 -16.707031 12.984375 -16.375 C 13.953125 -16.050781 14.773438 -15.523438 15.453125 -14.796875 C 16.117188 -14.078125 16.628906 -13.1875 16.984375 -12.125 C 17.335938 -11.0625 17.515625 -9.769531 17.515625 -8.25 C 17.515625 -6.738281 17.335938 -5.441406 16.984375 -4.359375 C 16.628906 -3.285156 16.117188 -2.382812 15.453125 -1.65625 C 14.773438 -0.925781 13.953125 -0.390625 12.984375 -0.046875 C 12.023438 0.296875 11 0.46875 9.90625 0.46875 C 8.6875 0.46875 7.59375 0.296875 6.625 -0.046875 C 5.65625 -0.390625 4.832031 -0.921875 4.15625 -1.640625 C 3.488281 -2.359375 2.972656 -3.265625 2.609375 -4.359375 C 2.242188 -5.453125 2.0625 -6.75 2.0625 -8.25 Z M 15.15625 -8.234375 C 15.15625 -9.578125 14.988281 -10.738281 14.65625 -11.71875 C 14.332031 -12.707031 13.910156 -13.523438 13.390625 -14.171875 C 12.878906 -14.816406 12.296875 -15.289062 11.640625 -15.59375 C 10.984375 -15.90625 10.328125 -16.0625 9.671875 -16.0625 C 9.066406 -16.0625 8.457031 -15.9375 7.84375 -15.6875 C 7.238281 -15.4375 6.6875 -15.007812 6.1875 -14.40625 C 5.695312 -13.800781 5.296875 -13 4.984375 -12 C 4.679688 -11 4.53125 -9.742188 4.53125 -8.234375 C 4.53125 -6.710938 4.707031 -5.453125 5.0625 -4.453125 C 5.414062 -3.453125 5.867188 -2.648438 6.421875 -2.046875 C 6.972656 -1.441406 7.582031 -1.015625 8.25 -0.765625 C 8.925781 -0.515625 9.59375 -0.390625 10.25 -0.390625 C 10.851562 -0.390625 11.445312 -0.539062 12.03125 -0.84375 C 12.613281 -1.15625 13.140625 -1.632812 13.609375 -2.28125 C 14.078125 -2.9375 14.453125 -3.753906 14.734375 -4.734375 C 15.015625 -5.710938 15.15625 -6.878906 15.15625 -8.234375 Z M 15.15625 -8.234375 "/></g></g></g><g fill="#ffffff" fill-opacity="1"><g transform="translate(75.75423, 42.022091)"><g><path d="M 2.0625 -8.25 C 2.0625 -11.25 2.75 -13.4375 4.125 -14.8125 C 5.5 -16.1875 7.425781 -16.875 9.90625 -16.875 C 11 -16.875 12.023438 -16.707031 12.984375 -16.375 C 13.953125 -16.050781 14.773438 -15.523438 15.453125 -14.796875 C 16.117188 -14.078125 16.628906 -13.1875 16.984375 -12.125 C 17.335938 -11.0625 17.515625 -9.769531 17.515625 -8.25 C 17.515625 -6.738281 17.335938 -5.441406 16.984375 -4.359375 C 16.628906 -3.285156 16.117188 -2.382812 15.453125 -1.65625 C 14.773438 -0.925781 13.953125 -0.390625 12.984375 -0.046875 C 12.023438 0.296875 11 0.46875 9.90625 0.46875 C 8.6875 0.46875 7.59375 0.296875 6.625 -0.046875 C 5.65625 -0.390625 4.832031 -0.921875 4.15625 -1.640625 C 3.488281 -2.359375 2.972656 -3.265625 2.609375 -4.359375 C 2.242188 -5.453125 2.0625 -6.75 2.0625 -8.25 Z M 15.15625 -8.234375 C 15.15625 -9.578125 14.988281 -10.738281 14.65625 -11.71875 C 14.332031 -12.707031 13.910156 -13.523438 13.390625 -14.171875 C 12.878906 -14.816406 12.296875 -15.289062 11.640625 -15.59375 C 10.984375 -15.90625 10.328125 -16.0625 9.671875 -16.0625 C 9.066406 -16.0625 8.457031 -15.9375 7.84375 -15.6875 C 7.238281 -15.4375 6.6875 -15.007812 6.1875 -14.40625 C 5.695312 -13.800781 5.296875 -13 4.984375 -12 C 4.679688 -11 4.53125 -9.742188 4.53125 -8.234375 C 4.53125 -6.710938 4.707031 -5.453125 5.0625 -4.453125 C 5.414062 -3.453125 5.867188 -2.648438 6.421875 -2.046875 C 6.972656 -1.441406 7.582031 -1.015625 8.25 -0.765625 C 8.925781 -0.515625 9.59375 -0.390625 10.25 -0.390625 C 10.851562 -0.390625 11.445312 -0.539062 12.03125 -0.84375 C 12.613281 -1.15625 13.140625 -1.632812 13.609375 -2.28125 C 14.078125 -2.9375 14.453125 -3.753906 14.734375 -4.734375 C 15.015625 -5.710938 15.15625 -6.878906 15.15625 -8.234375 Z M 15.15625 -8.234375 "/></g></g></g><g fill="#ffffff" fill-opacity="1"><g transform="translate(96.506046, 42.022091)"><g><path d="M 15.0625 -8.46875 C 15.0625 -9.757812 14.898438 -10.847656 14.578125 -11.734375 C 14.265625 -12.617188 13.8125 -13.347656 13.21875 -13.921875 C 12.925781 -14.210938 12.625 -14.46875 12.3125 -14.6875 C 12 -14.914062 11.648438 -15.109375 11.265625 -15.265625 C 10.878906 -15.421875 10.441406 -15.539062 9.953125 -15.625 C 9.472656 -15.71875 8.925781 -15.765625 8.3125 -15.765625 L 6.15625 -15.765625 L 6.15625 -0.90625 L 9.515625 -0.90625 C 11.484375 -0.90625 12.898438 -1.519531 13.765625 -2.75 C 14.628906 -3.988281 15.0625 -5.894531 15.0625 -8.46875 Z M 9.03125 -16.53125 C 10.320312 -16.53125 11.488281 -16.382812 12.53125 -16.09375 C 13.582031 -15.800781 14.472656 -15.332031 15.203125 -14.6875 C 15.929688 -14.039062 16.5 -13.203125 16.90625 -12.171875 C 17.3125 -11.148438 17.515625 -9.894531 17.515625 -8.40625 C 17.515625 -5.6875 16.851562 -3.601562 15.53125 -2.15625 C 14.21875 -0.71875 12.210938 0 9.515625 0 C 8.796875 0 8.035156 -0.00390625 7.234375 -0.015625 C 6.429688 -0.0351562 5.703125 -0.046875 5.046875 -0.046875 L 1.890625 -0.046875 L 1.890625 -0.4375 L 3.90625 -1.265625 L 3.90625 -15.34375 L 1.890625 -16.09375 L 1.890625 -16.53125 Z M 9.03125 -16.53125 "/></g></g></g><g clip-path="url(#ab4b416eb8)"><path fill="#ffffff" d="M 13.757812 14.175781 C 12.445312 9.425781 10.839844 5.035156 10.839844 5.035156 C 10.621094 4.210938 13.167969 2.902344 16.527344 2.113281 C 18.199219 1.71875 19.753906 1.53125 20.925781 1.539062 C 21.070312 2.039062 21.214844 2.539062 21.359375 3.042969 C 21.691406 4.199219 22.023438 5.355469 22.359375 6.511719 C 22.730469 7.8125 23.105469 9.109375 23.480469 10.40625 C 23.421875 10.089844 23.367188 9.777344 23.3125 9.460938 C 22.84375 6.84375 22.378906 4.226562 21.914062 1.605469 C 22.539062 1.699219 22.933594 1.890625 23.007812 2.175781 C 23.007812 2.175781 23.71875 6.390625 24.84375 10.945312 C 24.007812 10.976562 23.179688 11.050781 22.351562 11.175781 C 20.972656 11.390625 19.617188 11.726562 18.308594 12.191406 C 17.757812 12.386719 17.214844 12.605469 16.6875 12.84375 C 18.015625 12.355469 19.398438 12.003906 20.800781 11.785156 C 22.269531 11.554688 23.761719 11.472656 25.246094 11.546875 C 27.53125 11.664062 29.105469 12.160156 29.222656 12.605469 C 29.347656 13.070312 27.914062 13.449219 25.640625 13.9375 C 25.804688 14.570312 25.945312 15.148438 25.964844 15.308594 C 26.007812 15.667969 26.003906 16.386719 26.003906 16.386719 C 26.003906 16.386719 26.234375 16.644531 26.4375 16.984375 C 26.722656 17.453125 27.015625 18.082031 27.140625 18.367188 C 27.226562 18.566406 27.167969 18.839844 26.9375 18.9375 C 26.667969 19.050781 26.742188 19.007812 26.070312 19.183594 C 25.96875 19.679688 26.308594 19.898438 26.296875 20.109375 C 26.289062 20.21875 26.214844 20.300781 26.148438 20.355469 C 26.203125 20.378906 26.253906 20.40625 26.308594 20.425781 C 26.445312 20.46875 26.585938 20.511719 26.71875 20.566406 C 26.996094 20.671875 27.253906 20.804688 27.488281 20.984375 C 27.960938 21.347656 28.285156 21.84375 28.617188 22.320312 C 28.78125 22.554688 28.949219 22.78125 29.125 23.003906 C 29.179688 23.070312 29.285156 23.246094 29.382812 23.246094 C 29.492188 23.242188 29.542969 23.042969 29.578125 22.972656 C 29.703125 22.738281 29.878906 22.683594 30.15625 22.683594 C 30.421875 22.683594 30.703125 22.742188 30.933594 22.871094 C 31.414062 23.136719 31.226562 23.882812 31.058594 24.289062 C 30.851562 24.804688 30.347656 25.089844 29.761719 24.976562 C 29.207031 24.875 28.925781 24.398438 28.6875 23.960938 C 28.40625 23.453125 28.136719 22.9375 27.859375 22.429688 C 27.566406 21.890625 27.277344 21.257812 26.734375 20.902344 C 26.609375 20.820312 26.472656 20.75 26.335938 20.691406 C 26.308594 20.679688 26.277344 20.671875 26.25 20.664062 C 26.257812 20.695312 26.265625 20.726562 26.261719 20.765625 C 26.234375 21.1875 25.984375 21.101562 25.917969 21.238281 C 25.757812 21.589844 25.921875 21.878906 25.972656 22.347656 C 26.015625 22.785156 25.78125 22.996094 25.34375 23.082031 C 24.839844 23.183594 23.15625 22.875 22.675781 22.667969 C 22.632812 22.726562 22.566406 23.171875 22.480469 23.785156 C 22.332031 24.011719 21.644531 24.351562 20.96875 24.351562 C 19.6875 24.351562 16.804688 23.625 15.5 22.25 C 15.707031 20.984375 15.738281 19.738281 15.632812 19.5625 C 15.484375 19.320312 14.441406 18.671875 14.164062 16.640625 C 12.054688 17.171875 10.667969 17.433594 10.550781 16.992188 C 10.429688 16.535156 11.664062 15.332031 13.757812 14.175781 Z M 13.757812 14.175781 " fill-opacity="1" fill-rule="nonzero"/></g><g clip-path="url(#fbd2fdfe77)"><path fill="#ffffff" d="M 22.882812 25.089844 L 24.765625 25.855469 C 25.707031 27.746094 26.160156 30.972656 26.160156 30.972656 L 24.328125 31.03125 L 25.90625 32.171875 C 24.902344 38.570312 22.308594 43.527344 22.308594 43.527344 C 22.308594 43.527344 16.644531 34.195312 12.9375 31.980469 L 15.53125 30.574219 L 12.253906 31.054688 L 11.78125 25.800781 L 14.097656 24.546875 C 14.097656 24.546875 19.640625 30.589844 22.164062 38.570312 C 22.917969 35.101562 23.246094 30.386719 22.882812 25.089844 Z M 22.882812 25.089844 " fill-opacity="1" fill-rule="nonzero"/></g><path fill="#ffffff" d="M 17.535156 25.589844 C 17.546875 25.242188 17.582031 24.925781 17.636719 24.648438 C 17.675781 24.425781 17.914062 24.300781 18.113281 24.402344 L 19.949219 25.332031 C 20.070312 25.183594 20.261719 25.085938 20.476562 25.078125 C 20.71875 25.066406 20.9375 25.171875 21.074219 25.34375 L 22.023438 24.664062 C 22.136719 24.582031 22.292969 24.644531 22.328125 24.78125 C 22.394531 25.046875 22.453125 25.355469 22.484375 25.699219 C 22.519531 26.089844 22.515625 26.441406 22.492188 26.742188 C 22.480469 26.898438 22.3125 26.984375 22.183594 26.898438 L 21.085938 26.144531 C 20.960938 26.304688 20.765625 26.410156 20.539062 26.421875 C 20.304688 26.429688 20.09375 26.332031 19.957031 26.175781 L 18.140625 27.175781 C 17.945312 27.285156 17.707031 27.175781 17.664062 26.957031 C 17.582031 26.578125 17.523438 26.117188 17.535156 25.589844 Z M 17.535156 25.589844 " fill-opacity="1" fill-rule="nonzero"/></svg>