<svg xmlns="http://www.w3.org/2000/svg" xmlns:xlink="http://www.w3.org/1999/xlink" width="1300" zoomAndPan="magnify" viewBox="0 0 974.88 374.999991" height="500" preserveAspectRatio="xMidYMid meet" version="1.0"><defs><g/><clipPath id="361e893505"><path d="M 12 41.613281 L 305.210938 41.613281 L 305.210938 334.828125 L 12 334.828125 Z M 12 41.613281 " clip-rule="nonzero"/></clipPath></defs><path fill="#68b984" d="M 178.214844 184.371094 C 177.355469 184.117188 176.480469 183.925781 175.59375 183.796875 C 174.710938 183.667969 173.816406 183.597656 172.921875 183.59375 C 172.027344 183.585938 171.132812 183.644531 170.246094 183.761719 C 169.359375 183.882812 168.484375 184.0625 167.621094 184.304688 C 166.757812 184.546875 165.917969 184.847656 165.097656 185.207031 C 164.273438 185.566406 163.484375 185.984375 162.722656 186.453125 C 161.960938 186.921875 161.234375 187.445312 160.542969 188.015625 C 159.855469 188.589844 159.207031 189.207031 158.605469 189.871094 C 158.003906 189.207031 157.355469 188.589844 156.667969 188.015625 C 155.976562 187.445312 155.25 186.921875 154.488281 186.453125 C 153.726562 185.980469 152.9375 185.566406 152.113281 185.207031 C 151.292969 184.847656 150.453125 184.546875 149.589844 184.304688 C 148.726562 184.0625 147.851562 183.882812 146.964844 183.761719 C 146.078125 183.644531 145.183594 183.585938 144.289062 183.59375 C 143.394531 183.597656 142.503906 183.667969 141.617188 183.796875 C 140.730469 183.925781 139.855469 184.117188 138.996094 184.371094 C 119.386719 192.160156 121.402344 217.3125 152.421875 236.097656 C 153.351562 236.667969 154.339844 237.105469 155.390625 237.402344 C 156.441406 237.699219 157.511719 237.847656 158.605469 237.847656 C 159.699219 237.847656 160.769531 237.699219 161.820312 237.402344 C 162.871094 237.105469 163.859375 236.667969 164.789062 236.097656 C 195.808594 217.3125 197.824219 192.160156 178.214844 184.371094 Z M 161.355469 230.554688 C 160.941406 230.8125 160.503906 231.007812 160.035156 231.140625 C 159.566406 231.277344 159.089844 231.34375 158.605469 231.34375 C 158.121094 231.34375 157.644531 231.277344 157.175781 231.140625 C 156.707031 231.007812 156.269531 230.8125 155.855469 230.554688 C 133.589844 216.808594 132.445312 204.851562 133.039062 200.359375 C 133.113281 199.667969 133.25 198.988281 133.449219 198.324219 C 133.644531 197.65625 133.902344 197.011719 134.21875 196.394531 C 134.53125 195.773438 134.902344 195.1875 135.324219 194.632812 C 135.746094 194.082031 136.214844 193.570312 136.730469 193.105469 C 137.246094 192.636719 137.796875 192.222656 138.390625 191.855469 C 138.980469 191.488281 139.601562 191.179688 140.246094 190.925781 C 140.894531 190.671875 141.5625 190.480469 142.242188 190.351562 C 142.925781 190.21875 143.617188 190.148438 144.3125 190.144531 C 146.308594 190.210938 148.207031 190.683594 150.003906 191.5625 C 151.800781 192.4375 153.339844 193.648438 154.621094 195.183594 C 154.882812 195.445312 155.167969 195.679688 155.472656 195.882812 C 155.78125 196.089844 156.105469 196.261719 156.449219 196.40625 C 156.789062 196.546875 157.144531 196.652344 157.507812 196.726562 C 157.867188 196.796875 158.234375 196.832031 158.605469 196.832031 C 158.976562 196.832031 159.34375 196.796875 159.703125 196.726562 C 160.066406 196.652344 160.421875 196.546875 160.761719 196.40625 C 161.105469 196.261719 161.429688 196.089844 161.738281 195.882812 C 162.042969 195.679688 162.328125 195.445312 162.589844 195.183594 C 163.382812 194.175781 164.300781 193.308594 165.34375 192.570312 C 166.390625 191.835938 167.523438 191.265625 168.734375 190.863281 C 169.949219 190.457031 171.195312 190.238281 172.472656 190.203125 C 173.753906 190.167969 175.007812 190.316406 176.242188 190.648438 C 190.261719 196.464844 186.644531 215.160156 161.355469 230.554688 Z M 161.355469 230.554688 " fill-opacity="1" fill-rule="nonzero"/><path fill="#68b984" d="M 131.300781 159.21875 L 131.300781 130.355469 C 133.039062 93.796875 184.675781 94.347656 185.910156 131.273438 L 185.910156 141.488281 L 137.851562 141.488281 L 137.851562 159.21875 C 137.84375 159.648438 137.753906 160.058594 137.585938 160.453125 C 137.414062 160.847656 137.175781 161.195312 136.871094 161.496094 C 136.5625 161.796875 136.210938 162.027344 135.816406 162.191406 C 135.417969 162.351562 135.003906 162.433594 134.574219 162.433594 C 134.148438 162.433594 133.734375 162.351562 133.335938 162.191406 C 132.9375 162.027344 132.585938 161.796875 132.28125 161.496094 C 131.976562 161.195312 131.738281 160.847656 131.566406 160.453125 C 131.398438 160.058594 131.308594 159.648438 131.300781 159.21875 Z M 131.300781 159.21875 " fill-opacity="1" fill-rule="nonzero"/><g clip-path="url(#361e893505)"><path fill="#68b984" d="M 158.605469 41.613281 C 156.207031 41.613281 153.808594 41.671875 151.410156 41.789062 C 149.015625 41.90625 146.625 42.082031 144.234375 42.320312 C 141.847656 42.554688 139.46875 42.847656 137.09375 43.199219 C 134.71875 43.550781 132.355469 43.960938 130.003906 44.429688 C 127.652344 44.898438 125.308594 45.421875 122.984375 46.007812 C 120.65625 46.589844 118.34375 47.230469 116.046875 47.925781 C 113.75 48.621094 111.472656 49.375 109.214844 50.183594 C 106.957031 50.992188 104.71875 51.855469 102.5 52.773438 C 100.285156 53.691406 98.09375 54.664062 95.921875 55.6875 C 93.753906 56.714844 91.613281 57.792969 89.496094 58.925781 C 87.378906 60.054688 85.292969 61.238281 83.234375 62.472656 C 81.175781 63.703125 79.148438 64.988281 77.15625 66.320312 C 75.160156 67.652344 73.199219 69.035156 71.273438 70.464844 C 69.34375 71.894531 67.453125 73.371094 65.597656 74.890625 C 63.746094 76.414062 61.929688 77.980469 60.148438 79.589844 C 58.371094 81.203125 56.636719 82.855469 54.9375 84.554688 C 53.242188 86.25 51.589844 87.988281 49.976562 89.765625 C 48.367188 91.542969 46.800781 93.359375 45.277344 95.214844 C 43.753906 97.066406 42.277344 98.960938 40.851562 100.886719 C 39.421875 102.8125 38.039062 104.773438 36.707031 106.769531 C 35.375 108.765625 34.089844 110.789062 32.855469 112.847656 C 31.621094 114.90625 30.441406 116.992188 29.308594 119.109375 C 28.179688 121.226562 27.101562 123.367188 26.074219 125.539062 C 25.046875 127.707031 24.078125 129.898438 23.160156 132.117188 C 22.238281 134.332031 21.375 136.570312 20.570312 138.828125 C 19.761719 141.089844 19.007812 143.367188 18.3125 145.664062 C 17.613281 147.957031 16.976562 150.269531 16.390625 152.597656 C 15.808594 154.925781 15.285156 157.265625 14.816406 159.617188 C 14.347656 161.972656 13.9375 164.335938 13.585938 166.707031 C 13.234375 169.082031 12.941406 171.460938 12.703125 173.851562 C 12.46875 176.238281 12.292969 178.628906 12.175781 181.027344 C 12.058594 183.421875 12 185.820312 12 188.21875 C 12 190.621094 12.058594 193.015625 12.175781 195.414062 C 12.292969 197.808594 12.46875 200.203125 12.703125 202.589844 C 12.941406 204.976562 13.234375 207.359375 13.585938 209.730469 C 13.9375 212.105469 14.347656 214.46875 14.816406 216.820312 C 15.285156 219.175781 15.808594 221.515625 16.390625 223.84375 C 16.976562 226.171875 17.613281 228.480469 18.3125 230.777344 C 19.007812 233.074219 19.761719 235.351562 20.570312 237.609375 C 21.375 239.871094 22.238281 242.105469 23.160156 244.324219 C 24.078125 246.539062 25.046875 248.734375 26.074219 250.902344 C 27.101562 253.070312 28.179688 255.214844 29.308594 257.328125 C 30.441406 259.445312 31.621094 261.53125 32.855469 263.589844 C 34.089844 265.648438 35.375 267.675781 36.707031 269.671875 C 38.039062 271.664062 39.421875 273.625 40.851562 275.554688 C 42.277344 277.480469 43.753906 279.371094 45.277344 281.226562 C 46.800781 283.082031 48.367188 284.898438 49.976562 286.675781 C 51.589844 288.453125 53.242188 290.191406 54.9375 291.886719 C 56.636719 293.582031 58.371094 295.238281 60.148438 296.847656 C 61.929688 298.460938 63.746094 300.027344 65.597656 301.546875 C 67.453125 303.070312 69.34375 304.546875 71.273438 305.976562 C 73.199219 307.40625 75.160156 308.785156 77.15625 310.121094 C 79.148438 311.453125 81.175781 312.734375 83.234375 313.96875 C 85.292969 315.203125 87.378906 316.382812 89.496094 317.515625 C 91.613281 318.648438 93.753906 319.726562 95.921875 320.75 C 98.09375 321.777344 100.285156 322.75 102.5 323.667969 C 104.71875 324.585938 106.957031 325.449219 109.214844 326.257812 C 111.472656 327.066406 113.75 327.816406 116.046875 328.515625 C 118.34375 329.210938 120.65625 329.851562 122.984375 330.433594 C 125.308594 331.015625 127.652344 331.542969 130.003906 332.011719 C 132.355469 332.476562 134.71875 332.886719 137.09375 333.238281 C 139.46875 333.59375 141.847656 333.886719 144.234375 334.121094 C 146.625 334.355469 149.015625 334.53125 151.410156 334.648438 C 153.808594 334.769531 156.207031 334.828125 158.605469 334.828125 C 161.003906 334.828125 163.402344 334.769531 165.800781 334.648438 C 168.195312 334.53125 170.585938 334.355469 172.976562 334.121094 C 175.363281 333.886719 177.742188 333.59375 180.117188 333.238281 C 182.492188 332.886719 184.855469 332.476562 187.207031 332.011719 C 189.558594 331.542969 191.902344 331.015625 194.226562 330.433594 C 196.554688 329.851562 198.867188 329.210938 201.164062 328.515625 C 203.460938 327.816406 205.738281 327.066406 207.996094 326.257812 C 210.253906 325.449219 212.492188 324.585938 214.710938 323.667969 C 216.925781 322.75 219.117188 321.777344 221.289062 320.75 C 223.457031 319.726562 225.597656 318.648438 227.714844 317.515625 C 229.832031 316.382812 231.917969 315.203125 233.976562 313.96875 C 236.035156 312.734375 238.0625 311.453125 240.054688 310.121094 C 242.050781 308.785156 244.011719 307.40625 245.9375 305.976562 C 247.867188 304.546875 249.757812 303.070312 251.613281 301.546875 C 253.464844 300.027344 255.28125 298.460938 257.0625 296.847656 C 258.839844 295.238281 260.574219 293.582031 262.273438 291.886719 C 263.96875 290.191406 265.621094 288.453125 267.234375 286.675781 C 268.84375 284.898438 270.410156 283.082031 271.933594 281.226562 C 273.457031 279.371094 274.933594 277.480469 276.359375 275.554688 C 277.789062 273.625 279.171875 271.664062 280.503906 269.671875 C 281.835938 267.675781 283.121094 265.648438 284.355469 263.589844 C 285.589844 261.53125 286.769531 259.445312 287.902344 257.328125 C 289.03125 255.214844 290.109375 253.070312 291.136719 250.902344 C 292.164062 248.734375 293.132812 246.539062 294.050781 244.324219 C 294.972656 242.105469 295.835938 239.871094 296.640625 237.609375 C 297.449219 235.351562 298.203125 233.074219 298.898438 230.777344 C 299.597656 228.480469 300.234375 226.171875 300.820312 223.84375 C 301.402344 221.515625 301.925781 219.175781 302.394531 216.820312 C 302.863281 214.46875 303.273438 212.105469 303.625 209.730469 C 303.976562 207.359375 304.269531 204.976562 304.507812 202.589844 C 304.742188 200.203125 304.917969 197.808594 305.035156 195.414062 C 305.152344 193.015625 305.210938 190.621094 305.210938 188.21875 C 305.210938 185.820312 305.152344 183.421875 305.035156 181.027344 C 304.917969 178.628906 304.738281 176.238281 304.503906 173.851562 C 304.269531 171.464844 303.976562 169.082031 303.625 166.710938 C 303.269531 164.335938 302.859375 161.972656 302.390625 159.621094 C 301.925781 157.265625 301.398438 154.925781 300.816406 152.597656 C 300.230469 150.273438 299.59375 147.960938 298.894531 145.664062 C 298.199219 143.367188 297.445312 141.089844 296.636719 138.832031 C 295.828125 136.574219 294.964844 134.335938 294.046875 132.117188 C 293.128906 129.902344 292.15625 127.710938 291.132812 125.539062 C 290.105469 123.371094 289.027344 121.230469 287.894531 119.113281 C 286.765625 116.996094 285.582031 114.910156 284.347656 112.851562 C 283.117188 110.796875 281.832031 108.769531 280.5 106.773438 C 279.167969 104.777344 277.785156 102.816406 276.355469 100.890625 C 274.925781 98.964844 273.449219 97.074219 271.929688 95.21875 C 270.40625 93.363281 268.839844 91.546875 267.230469 89.769531 C 265.617188 87.992188 263.964844 86.253906 262.265625 84.558594 C 260.570312 82.863281 258.832031 81.207031 257.054688 79.597656 C 255.277344 77.984375 253.460938 76.417969 251.605469 74.898438 C 249.753906 73.375 247.863281 71.898438 245.933594 70.46875 C 244.007812 69.039062 242.046875 67.660156 240.050781 66.328125 C 238.058594 64.992188 236.03125 63.710938 233.972656 62.476562 C 231.914062 61.242188 229.828125 60.0625 227.710938 58.929688 C 225.597656 57.796875 223.453125 56.71875 221.285156 55.695312 C 219.117188 54.667969 216.921875 53.695312 214.707031 52.777344 C 212.488281 51.859375 210.253906 50.996094 207.992188 50.1875 C 205.734375 49.378906 203.457031 48.625 201.160156 47.929688 C 198.867188 47.234375 196.554688 46.59375 194.226562 46.011719 C 191.898438 45.425781 189.558594 44.902344 187.207031 44.433594 C 184.851562 43.964844 182.488281 43.554688 180.117188 43.203125 C 177.742188 42.851562 175.363281 42.554688 172.976562 42.320312 C 170.585938 42.085938 168.195312 41.910156 165.800781 41.789062 C 163.402344 41.671875 161.003906 41.613281 158.605469 41.613281 Z M 202.128906 279.988281 L 115.082031 279.988281 C 98.953125 279.941406 89.152344 263.632812 91.210938 247.960938 L 100.648438 163.296875 C 100.734375 162.566406 100.851562 161.839844 101 161.117188 C 101.152344 160.398438 101.332031 159.6875 101.546875 158.980469 C 101.757812 158.277344 102.003906 157.582031 102.28125 156.902344 C 102.554688 156.21875 102.859375 155.550781 103.195312 154.894531 C 103.53125 154.238281 103.894531 153.601562 104.289062 152.976562 C 104.679688 152.355469 105.101562 151.75 105.546875 151.167969 C 105.996094 150.582031 106.46875 150.019531 106.964844 149.476562 C 107.460938 148.933594 107.984375 148.414062 108.527344 147.917969 C 109.070312 147.421875 109.636719 146.949219 110.222656 146.503906 C 110.808594 146.058594 111.414062 145.640625 112.035156 145.25 C 112.660156 144.859375 113.300781 144.496094 113.957031 144.164062 C 114.609375 143.828125 115.28125 143.527344 115.964844 143.25 C 116.648438 142.976562 117.339844 142.734375 118.046875 142.523438 C 118.75 142.3125 119.464844 142.132812 120.183594 141.984375 C 120.90625 141.835938 121.632812 141.722656 122.363281 141.636719 C 123.09375 141.554688 123.828125 141.507812 124.566406 141.488281 L 124.75 141.488281 L 124.75 130.355469 C 126.625 85.457031 190.628906 85.550781 192.460938 130.355469 L 192.460938 141.488281 C 194.691406 141.46875 196.875 141.773438 199.015625 142.40625 C 200.167969 142.75 201.292969 143.179688 202.386719 143.6875 C 203.476562 144.195312 204.527344 144.78125 205.535156 145.445312 C 206.542969 146.105469 207.496094 146.839844 208.398438 147.640625 C 209.300781 148.441406 210.136719 149.300781 210.914062 150.226562 C 211.6875 151.148438 212.394531 152.125 213.027344 153.148438 C 213.660156 154.175781 214.214844 155.242188 214.695312 156.347656 C 215.171875 157.453125 215.566406 158.589844 215.878906 159.753906 C 216.191406 160.917969 216.421875 162.097656 216.5625 163.296875 L 226 247.960938 C 228.058594 263.632812 218.257812 279.941406 202.128906 279.988281 Z M 202.128906 279.988281 " fill-opacity="1" fill-rule="nonzero"/></g><g fill="#ffffff" fill-opacity="1"><g transform="translate(331.692361, 237.681538)"><g><path d="M 32.027344 6.378906 L 31.167969 4.664062 L 31.167969 2.699219 C 31.289062 2.699219 31.414062 2.820312 31.535156 2.820312 C 32.148438 2.945312 32.882812 3.066406 33.253906 3.066406 L 33.988281 3.066406 C 34.234375 3.066406 34.726562 2.820312 34.847656 2.699219 C 35.09375 2.453125 38.773438 2.207031 39.265625 2.207031 L 63.929688 -1.105469 L 78.777344 -7.484375 L 85.035156 -12.636719 C 85.277344 -12.761719 86.261719 -13.867188 86.75 -14.355469 L 87.488281 -15.214844 L 87.363281 -14.96875 C 88.101562 -16.074219 91.535156 -21.839844 92.152344 -23.3125 C 92.273438 -23.925781 92.394531 -24.664062 92.394531 -24.785156 L 92.394531 -30.675781 C 92.394531 -30.921875 92.273438 -31.414062 92.152344 -31.535156 L 91.90625 -31.902344 L 89.820312 -37.054688 C 89.449219 -38.039062 87.609375 -41.105469 87.242188 -41.351562 L 87.609375 -41.105469 L 77.179688 -51.289062 L 73.132812 -53.746094 L 73.867188 -54.113281 C 74.113281 -54.113281 74.972656 -54.113281 75.460938 -54.234375 C 76.566406 -54.234375 78.285156 -54.234375 78.40625 -54.359375 L 79.144531 -54.601562 C 79.390625 -54.726562 79.632812 -54.847656 79.511719 -54.847656 C 79.757812 -54.847656 80.25 -55.09375 80.371094 -55.214844 C 80.492188 -55.339844 82.210938 -55.585938 82.578125 -55.585938 C 89.328125 -57.546875 97.917969 -62.703125 103.070312 -67.363281 L 104.910156 -69.203125 C 105.28125 -69.082031 105.894531 -69.449219 106.136719 -69.941406 C 106.261719 -70.433594 106.753906 -70.800781 107.121094 -70.921875 C 107.734375 -71.414062 108.347656 -72.027344 108.839844 -72.640625 L 109.453125 -73.375 C 109.941406 -74.234375 113.867188 -78.40625 114.726562 -79.144531 C 115.21875 -79.511719 116.570312 -81.84375 116.9375 -82.824219 C 117.183594 -83.683594 118.164062 -87.121094 118.164062 -87.976562 L 118.285156 -88.222656 C 118.65625 -88.714844 118.65625 -90.554688 118.53125 -91.292969 C 118.53125 -92.273438 118.410156 -92.886719 118.285156 -93.621094 C 118.164062 -94.359375 118.164062 -95.09375 118.164062 -95.832031 C 118.164062 -96.9375 117.550781 -98.898438 117.058594 -100.617188 L 116.324219 -103.316406 C 116.324219 -103.5625 115.832031 -103.929688 115.585938 -104.050781 C 115.710938 -104.050781 115.21875 -104.910156 114.726562 -105.769531 L 113.625 -107.980469 L 113.625 -107.734375 C 113.378906 -108.46875 112.765625 -109.082031 112.394531 -109.453125 L 111.90625 -109.820312 L 111.660156 -110.554688 L 108.839844 -113.132812 C 108.839844 -113.132812 108.222656 -113.992188 107.609375 -114.359375 L 107.488281 -114.359375 L 106.875 -115.21875 C 106.382812 -115.832031 105.894531 -116.445312 105.15625 -116.9375 L 105.28125 -116.9375 L 97.179688 -122.089844 C 96.8125 -122.210938 94.851562 -122.828125 93.378906 -123.195312 L 93.5 -123.195312 L 91.167969 -123.929688 C 90.0625 -124.054688 85.523438 -124.421875 83.070312 -124.542969 C 82.578125 -124.542969 82.210938 -124.667969 81.84375 -124.667969 L 75.953125 -124.667969 L 52.027344 -118.285156 L 27.609375 -104.910156 L 14.234375 -91.78125 L 10.796875 -86.136719 L 11.042969 -86.136719 L 10.0625 -85.402344 L 9.324219 -83.683594 C 8.957031 -83.070312 8.589844 -82.210938 8.464844 -81.71875 L 7.851562 -80.863281 C 7.851562 -80.863281 7.238281 -80.371094 7.117188 -79.757812 C 6.136719 -77.304688 5.765625 -75.832031 5.765625 -73.253906 C 5.765625 -72.761719 6.136719 -72.148438 6.257812 -71.90625 C 6.503906 -70.554688 6.871094 -67.488281 7.484375 -66.261719 L 10.183594 -63.558594 C 10.308594 -63.4375 10.796875 -63.191406 11.042969 -63.191406 C 11.167969 -63.191406 11.65625 -62.703125 11.902344 -62.332031 C 13.867188 -60.371094 16.195312 -59.265625 19.019531 -58.773438 L 19.386719 -58.773438 C 19.632812 -58.773438 20 -58.773438 20.246094 -58.773438 C 22.085938 -58.773438 24.296875 -59.144531 24.664062 -61.351562 L 24.539062 -61.230469 C 24.785156 -61.84375 24.664062 -62.332031 24.417969 -62.824219 C 24.296875 -62.945312 24.296875 -62.945312 24.296875 -63.316406 C 23.804688 -66.015625 23.4375 -66.503906 20.738281 -67.730469 C 20.367188 -67.730469 19.878906 -67.855469 19.753906 -67.976562 L 19.878906 -67.976562 C 17.179688 -69.574219 16.933594 -72.027344 17.300781 -75.09375 C 17.667969 -75.585938 17.792969 -76.078125 17.792969 -76.199219 L 24.050781 -85.523438 L 34.113281 -95.707031 C 34.113281 -95.707031 34.726562 -96.078125 35.214844 -96.324219 C 35.460938 -96.324219 35.707031 -96.445312 35.953125 -96.566406 C 36.199219 -96.691406 36.566406 -96.9375 36.320312 -96.9375 L 37.054688 -97.304688 L 38.652344 -98.652344 L 40.371094 -99.511719 C 40.492188 -99.511719 41.226562 -100.003906 41.226562 -100.003906 C 41.597656 -100.003906 42.578125 -100.496094 43.558594 -100.984375 C 44.785156 -101.722656 46.015625 -102.457031 46.136719 -102.457031 C 46.257812 -102.582031 47.609375 -102.949219 47.730469 -102.949219 C 48.222656 -102.949219 49.328125 -103.683594 50.429688 -104.421875 L 50.308594 -104.296875 L 52.394531 -105.402344 C 53.128906 -105.523438 54.480469 -105.769531 54.726562 -105.894531 L 54.601562 -105.769531 L 59.265625 -107.488281 C 60.617188 -107.980469 62.332031 -108.46875 62.332031 -108.46875 L 63.070312 -109.207031 L 79.511719 -113.011719 L 86.136719 -113.011719 C 87.242188 -112.886719 91.414062 -112.394531 92.027344 -112.394531 L 93.253906 -112.394531 C 94.480469 -111.90625 96.324219 -110.800781 97.550781 -109.820312 L 97.425781 -109.941406 C 98.410156 -109.207031 99.757812 -107.734375 100.738281 -106.875 L 104.175781 -103.4375 C 104.296875 -103.070312 104.667969 -102.582031 104.910156 -102.210938 L 105.402344 -101.351562 L 105.894531 -99.878906 L 105.894531 -99.757812 C 106.136719 -98.777344 106.507812 -97.425781 106.875 -96.691406 L 106.875 -95.707031 C 106.136719 -90.433594 103.4375 -84.910156 100.738281 -80.371094 C 100.617188 -80.25 97.425781 -76.691406 96.324219 -75.339844 L 95.585938 -74.972656 L 95.707031 -75.09375 C 94.972656 -74.605469 92.152344 -72.148438 91.414062 -71.414062 C 91.167969 -71.414062 90.921875 -71.167969 90.679688 -71.046875 C 90.0625 -70.921875 86.875 -69.203125 86.015625 -68.589844 C 84.910156 -68.347656 82.089844 -67.242188 81.597656 -66.996094 L 80.738281 -66.628906 C 80.371094 -66.503906 80.125 -66.503906 80.003906 -66.503906 L 71.414062 -64.296875 L 70.433594 -64.296875 C 70.1875 -64.296875 69.695312 -64.050781 69.574219 -63.804688 L 67.242188 -63.191406 C 66.382812 -62.945312 65.644531 -62.703125 65.644531 -62.703125 C 65.402344 -62.703125 64.910156 -62.457031 64.789062 -62.332031 C 64.664062 -62.210938 61.472656 -62.210938 61.105469 -62.210938 C 60.738281 -62.210938 60.125 -61.964844 60.003906 -61.597656 L 59.144531 -61.597656 C 59.019531 -61.597656 57.792969 -61.351562 57.058594 -61.230469 L 52.886719 -60.492188 C 52.640625 -60.371094 50.308594 -59.511719 48.957031 -59.019531 L 49.082031 -59.019531 L 45.890625 -57.917969 L 44.542969 -57.917969 C 44.664062 -58.285156 44.664062 -58.40625 44.664062 -58.40625 C 44.785156 -58.40625 44.664062 -58.160156 44.910156 -58.652344 C 45.15625 -59.632812 45.769531 -60.617188 46.136719 -61.472656 C 46.136719 -61.71875 46.628906 -62.945312 46.75 -63.070312 C 46.871094 -63.4375 48.34375 -66.015625 48.835938 -66.75 L 48.957031 -66.875 C 48.714844 -66.628906 48.46875 -66.628906 48.46875 -66.628906 C 48.589844 -66.628906 48.714844 -66.75 48.957031 -66.996094 L 49.203125 -67.363281 L 49.941406 -69.574219 L 49.941406 -69.449219 C 50.675781 -71.167969 51.289062 -73.007812 52.515625 -74.480469 C 54.726562 -79.632812 57.546875 -85.648438 59.878906 -90.921875 C 60.125 -91.414062 60.371094 -93.007812 60.371094 -93.746094 C 59.386719 -95.707031 58.160156 -97.550781 57.300781 -99.511719 C 57.300781 -99.757812 57.179688 -100.003906 57.179688 -100.003906 C 56.199219 -101.476562 54.359375 -101.476562 53.867188 -101.476562 L 52.515625 -101.476562 C 52.273438 -101.476562 51.660156 -101.230469 51.535156 -100.984375 L 48.46875 -97.058594 L 22.699219 -44.296875 L 17.054688 -17.425781 L 17.054688 -11.535156 C 14.480469 -12.636719 11.78125 -14.355469 10.550781 -17.300781 L 10.550781 -17.179688 C 10.183594 -18.160156 9.570312 -22.824219 9.570312 -24.050781 C 9.324219 -24.785156 9.449219 -25.398438 9.570312 -26.011719 C 8.835938 -25.523438 10.308594 -27.609375 10.796875 -28.222656 L 11.410156 -29.449219 C 11.410156 -29.449219 11.289062 -29.695312 11.042969 -29.695312 C 10.921875 -29.695312 10.796875 -29.695312 10.675781 -29.570312 C 10.921875 -29.695312 11.289062 -30.308594 11.289062 -30.675781 C 11.289062 -30.675781 11.410156 -31.167969 11.535156 -31.414062 L 11.535156 -31.289062 C 11.902344 -32.148438 12.269531 -32.882812 11.78125 -33.867188 C 11.65625 -34.234375 11.167969 -34.96875 10.921875 -35.339844 C 10.796875 -35.460938 10.675781 -35.707031 10.675781 -35.460938 L 9.449219 -36.566406 L 8.835938 -36.566406 C 8.464844 -36.566406 8.097656 -36.566406 7.851562 -36.566406 C 7.238281 -36.566406 6.75 -36.441406 6.136719 -35.953125 L 1.964844 -32.148438 C 1.839844 -32.027344 1.351562 -30.796875 1.351562 -30.796875 L 1.351562 -30.0625 C 0.859375 -29.695312 0.613281 -29.203125 0.613281 -28.835938 C 0.367188 -28.222656 0.246094 -27.730469 0.246094 -27.484375 L 0.246094 -21.964844 C 0.734375 -19.019531 1.839844 -16.441406 2.945312 -13.988281 L 3.4375 -13.007812 C 3.925781 -12.023438 4.171875 -11.410156 4.171875 -11.410156 L 6.136719 -8.710938 C 6.75 -7.609375 7.609375 -6.625 7.976562 -6.378906 C 8.097656 -5.765625 8.710938 -5.277344 9.078125 -5.03125 L 8.710938 -5.152344 C 9.449219 -4.539062 13.496094 -1.59375 14.722656 -1.105469 C 15.339844 -0.734375 17.546875 0.121094 18.773438 0.367188 L 18.894531 0.492188 C 18.894531 0.859375 19.753906 3.679688 20.125 4.417969 L 20 4.292969 C 20.367188 5.152344 22.699219 9.324219 23.3125 10.183594 L 24.171875 11.042969 C 24.539062 11.535156 25.03125 11.902344 25.523438 12.148438 L 28.222656 13.742188 L 30.921875 13.742188 C 35.828125 13.128906 33.5 9.324219 32.027344 6.378906 Z M 43.4375 -50.0625 L 44.785156 -49.328125 L 45.277344 -49.328125 C 45.890625 -49.203125 46.996094 -49.082031 46.871094 -49.203125 L 47.730469 -48.835938 L 52.148438 -48.835938 C 52.273438 -48.835938 52.761719 -48.835938 53.253906 -48.714844 C 53.621094 -48.714844 54.113281 -48.589844 54.234375 -48.589844 L 55.214844 -48.589844 C 55.214844 -48.589844 55.707031 -48.222656 56.199219 -48.101562 C 56.8125 -47.855469 58.898438 -47.855469 59.386719 -47.855469 L 61.472656 -47.855469 C 61.964844 -47.730469 62.945312 -46.996094 63.558594 -46.628906 C 64.175781 -46.136719 64.789062 -45.769531 65.644531 -45.769531 C 65.890625 -45.769531 66.261719 -45.769531 66.628906 -45.890625 L 70.433594 -44.542969 L 79.511719 -34.601562 L 79.390625 -34.726562 C 80.003906 -33.742188 80.617188 -32.027344 80.617188 -30.796875 L 78.039062 -26.257812 C 78.039062 -26.382812 77.917969 -26.382812 77.917969 -26.382812 L 57.546875 -15.214844 L 42.332031 -12.148438 L 40 -11.042969 L 40.246094 -11.167969 C 40.246094 -11.167969 35.09375 -10.429688 33.007812 -10.0625 C 32.761719 -10.0625 32.394531 -10.0625 32.148438 -10.0625 C 31.65625 -10.0625 31.167969 -10.0625 30.554688 -10.308594 L 30.554688 -13.253906 L 32.640625 -24.050781 L 32.640625 -25.152344 L 41.71875 -52.027344 C 41.597656 -51.414062 42.699219 -50.554688 43.4375 -50.0625 Z M 62.332031 -5.152344 C 62.457031 -5.277344 62.703125 -5.398438 62.945312 -5.398438 C 63.4375 -5.398438 64.050781 -4.90625 64.050781 -4.292969 L 62.945312 -4.785156 C 62.824219 -5.03125 62.578125 -5.152344 62.332031 -5.152344 Z M 101.722656 -70.433594 C 101.722656 -70.554688 101.722656 -70.554688 101.84375 -70.554688 C 101.84375 -70.433594 101.722656 -70.433594 101.722656 -70.433594 Z M 100.984375 -68.960938 L 101.109375 -68.960938 L 100.984375 -68.835938 Z M 100.984375 -68.960938 "/></g></g></g><g fill="#ffffff" fill-opacity="1"><g transform="translate(453.287549, 237.681538)"><g><path d="M 13.621094 -1.226562 C 14.722656 -1.226562 15.828125 -1.59375 16.808594 -2.332031 C 17.054688 -2.578125 18.652344 -4.171875 18.894531 -4.417969 C 19.019531 -4.417969 19.878906 -5.03125 19.878906 -5.03125 C 20.125 -5.277344 21.105469 -7.238281 21.226562 -7.484375 C 21.351562 -7.609375 22.824219 -8.957031 22.945312 -9.203125 C 24.171875 -10.550781 24.785156 -12.394531 25.398438 -14.234375 C 25.398438 -14.355469 25.398438 -14.480469 25.398438 -14.601562 L 29.082031 -19.019531 C 29.324219 -20.613281 30.554688 -21.839844 31.042969 -23.4375 C 31.167969 -23.558594 31.414062 -24.050781 31.414062 -24.050781 C 32.515625 -25.398438 34.113281 -26.625 34.480469 -28.46875 C 35.214844 -29.203125 37.792969 -33.007812 38.160156 -33.867188 C 38.527344 -34.480469 39.632812 -38.039062 39.878906 -39.019531 C 39.878906 -39.019531 40.125 -41.597656 40.246094 -42.699219 C 40.371094 -43.558594 39.386719 -44.542969 38.527344 -44.785156 C 38.40625 -44.785156 38.285156 -44.785156 38.160156 -44.785156 C 37.914062 -44.785156 37.792969 -44.664062 37.546875 -44.417969 C 37.179688 -43.804688 35.828125 -41.226562 35.460938 -40.613281 C 35.460938 -40.492188 35.214844 -39.878906 35.214844 -39.632812 L 26.382812 -22.085938 L 17.179688 -10.183594 L 14.847656 -8.464844 L 14.480469 -8.464844 C 14.355469 -8.464844 13.375 -11.535156 13.128906 -12.882812 C 13.128906 -13.253906 12.882812 -16.566406 12.761719 -17.667969 C 12.761719 -18.652344 12.761719 -23.191406 12.761719 -24.050781 C 12.761719 -24.296875 13.128906 -26.136719 13.128906 -26.382812 C 13.128906 -27.730469 13.128906 -33.867188 13.128906 -35.214844 C 13.867188 -37.179688 14.109375 -39.265625 13.867188 -41.351562 L 15.828125 -55.214844 C 15.707031 -56.320312 15.828125 -58.039062 16.195312 -59.019531 C 16.195312 -59.019531 16.808594 -59.878906 16.808594 -60.003906 C 16.933594 -60.125 17.179688 -60.859375 17.179688 -60.984375 C 17.179688 -61.230469 17.179688 -63.191406 17.179688 -63.4375 C 17.300781 -63.558594 18.160156 -65.523438 18.28125 -65.769531 C 18.28125 -65.890625 18.28125 -66.996094 18.28125 -67.117188 C 18.28125 -67.363281 18.527344 -68.589844 18.527344 -68.835938 C 18.894531 -69.816406 19.511719 -70.433594 19.265625 -71.535156 C 19.386719 -72.640625 20.859375 -78.164062 21.226562 -79.265625 C 20.246094 -76.691406 28.589844 -97.179688 30.429688 -98.652344 C 30.796875 -100.984375 28.835938 -105.035156 24.910156 -105.035156 C 23.066406 -105.035156 20.980469 -104.296875 18.527344 -102.335938 C 16.566406 -100.617188 10.675781 -96.566406 6.378906 -80.371094 L 0.246094 -57.300781 L 0.246094 -56.933594 L -2.453125 -34.847656 C -2.699219 -32.515625 -2.332031 -29.449219 -2.085938 -27.117188 C -2.085938 -27.117188 -2.085938 -26.75 -2.085938 -26.75 C -1.71875 -24.171875 -0.734375 -17.667969 -0.734375 -17.667969 C -0.367188 -16.195312 2.207031 -10.0625 2.945312 -8.835938 C 4.539062 -6.871094 10.796875 -1.226562 13.621094 -1.226562 Z M 11.410156 -9.449219 C 11.410156 -9.570312 11.410156 -10.0625 11.410156 -10.183594 C 11.78125 -9.570312 13.007812 -9.816406 13.128906 -9.203125 C 13.128906 -8.957031 13.128906 -7.730469 13.128906 -7.484375 L 12.148438 -7.484375 C 12.148438 -7.484375 11.65625 -8.835938 11.410156 -9.449219 Z M 12.515625 -10.550781 C 12.394531 -10.550781 12.394531 -11.042969 12.515625 -11.167969 C 12.882812 -11.042969 12.882812 -10.550781 12.761719 -10.183594 C 12.761719 -10.183594 12.515625 -10.429688 12.515625 -10.550781 Z M 11.042969 -10.796875 C 11.410156 -10.796875 11.410156 -10.183594 11.042969 -10.183594 C 10.796875 -10.183594 10.796875 -10.796875 11.042969 -10.796875 Z M 10.0625 -12.882812 C 10.0625 -13.253906 10.0625 -14.847656 10.0625 -15.214844 C 11.042969 -15.460938 9.816406 -17.054688 10.796875 -17.300781 C 10.921875 -17.179688 11.042969 -16.441406 11.042969 -16.320312 C 11.167969 -15.582031 11.167969 -12.269531 11.042969 -11.535156 L 10.796875 -11.535156 C 10.675781 -11.535156 10.183594 -12.515625 10.0625 -12.882812 Z M 12.148438 -17.300781 C 12.515625 -17.300781 12.515625 -16.566406 12.148438 -16.566406 C 11.78125 -16.566406 11.78125 -17.300781 12.148438 -17.300781 Z M 10.429688 -17.914062 C 10.796875 -17.914062 10.796875 -17.300781 10.429688 -17.300781 C 10.0625 -17.300781 10.0625 -17.914062 10.429688 -17.914062 Z M 10.429688 -22.699219 C 10.429688 -22.824219 10.796875 -23.558594 10.796875 -23.683594 C 10.796875 -24.171875 10.675781 -27.730469 10.796875 -28.097656 C 10.921875 -30.308594 11.289062 -32.394531 11.410156 -34.601562 C 11.410156 -34.726562 11.410156 -36.441406 11.410156 -36.566406 C 11.65625 -39.019531 12.394531 -45.03125 12.515625 -45.03125 L 12.761719 -45.398438 C 13.007812 -41.226562 12.269531 -37.054688 12.148438 -32.882812 C 12.148438 -32.640625 12.148438 -31.042969 12.148438 -30.796875 C 12.148438 -30.183594 11.78125 -25.03125 11.78125 -24.417969 C 11.65625 -22.453125 12.269531 -20 10.429688 -18.652344 C 10.429688 -19.265625 10.429688 -22.085938 10.429688 -22.699219 Z M 12.761719 -46.75 C 12.882812 -47.363281 13.375 -49.941406 13.496094 -50.554688 C 13.621094 -49.203125 13.621094 -47.609375 12.761719 -46.382812 C 12.761719 -46.503906 12.761719 -46.75 12.761719 -46.75 Z M 13.867188 -56.320312 C 13.988281 -57.058594 14.722656 -59.019531 14.847656 -59.019531 L 15.214844 -59.019531 C 15.214844 -58.898438 15.214844 -58.160156 15.214844 -57.917969 C 14.96875 -56.320312 14.847656 -53.867188 13.867188 -52.148438 C 13.742188 -52.761719 13.742188 -55.707031 13.867188 -56.320312 Z M 15.460938 -60.984375 C 15.828125 -60.984375 15.828125 -60.371094 15.460938 -60.371094 C 15.214844 -60.371094 15.214844 -60.984375 15.460938 -60.984375 Z M 15.460938 -63.070312 L 17.546875 -70.800781 C 17.667969 -71.046875 18.039062 -71.289062 18.28125 -71.167969 C 18.527344 -70.0625 17.914062 -69.816406 17.546875 -68.835938 C 16.808594 -66.628906 16.6875 -63.683594 15.460938 -61.71875 Z M 18.527344 -73.5 C 18.894531 -73.5 18.894531 -72.886719 18.527344 -72.886719 C 18.28125 -72.886719 18.28125 -73.5 18.527344 -73.5 Z M 18.527344 -73.5 "/></g></g></g><g fill="#ffffff" fill-opacity="1"><g transform="translate(498.195917, 237.681538)"><g><path d="M -1.964844 -23.4375 C -1.351562 -23.066406 1.964844 -21.105469 2.699219 -20.738281 C 3.558594 -20.738281 4.539062 -20.738281 5.398438 -20.738281 C 6.257812 -20.980469 9.570312 -22.085938 10.183594 -22.453125 C 11.042969 -22.824219 14.355469 -25.277344 14.96875 -25.769531 L 27.117188 -37.671875 L 27.484375 -37.300781 C 27.238281 -34.113281 27.730469 -31.902344 28.835938 -28.835938 C 28.957031 -28.710938 29.203125 -28.222656 29.203125 -28.222656 C 29.816406 -27.484375 32.269531 -25.03125 32.515625 -24.785156 C 33.5 -24.050781 34.847656 -23.3125 36.074219 -23.3125 C 36.566406 -23.3125 37.179688 -23.558594 37.671875 -23.804688 C 37.671875 -24.171875 38.40625 -25.769531 38.652344 -26.136719 C 38.773438 -26.257812 39.878906 -27.117188 40 -27.117188 C 41.84375 -28.710938 43.683594 -30.0625 45.398438 -31.902344 C 45.523438 -32.027344 46.015625 -32.882812 46.136719 -32.882812 C 46.382812 -33.253906 48.589844 -35.339844 48.835938 -35.707031 C 48.957031 -35.707031 49.203125 -36.199219 49.203125 -36.320312 L 52.515625 -38.652344 L 59.019531 -46.871094 C 59.144531 -47.363281 59.511719 -49.695312 59.632812 -50.1875 C 59.878906 -51.167969 60.859375 -52.148438 60.371094 -53.253906 C 60.246094 -53.5 59.632812 -53.746094 59.265625 -53.746094 C 59.144531 -53.746094 59.019531 -53.621094 59.019531 -53.621094 L 41.351562 -34.96875 L 40.738281 -34.601562 C 40.613281 -34.96875 40.613281 -36.320312 40.738281 -36.6875 C 40.859375 -37.792969 42.085938 -42.945312 42.457031 -44.171875 C 42.332031 -44.296875 42.332031 -45.03125 42.457031 -45.15625 C 42.578125 -46.136719 43.3125 -50.675781 43.4375 -51.535156 C 43.4375 -52.148438 43.929688 -52.515625 44.417969 -52.640625 L 48.222656 -71.289062 L 47.484375 -71.90625 C 46.996094 -71.660156 46.871094 -70.921875 46.871094 -70.554688 C 46.503906 -71.535156 46.503906 -72.640625 46.503906 -73.621094 C 46.382812 -73.746094 45.890625 -73.992188 45.769531 -73.992188 L 41.105469 -80.003906 C 40.984375 -80.125 39.140625 -80.617188 38.285156 -80.738281 C 38.039062 -80.863281 37.914062 -80.738281 37.671875 -80.371094 C 37.054688 -79.390625 35.460938 -76.566406 35.339844 -76.320312 C 35.214844 -76.199219 34.96875 -74.847656 34.96875 -74.605469 C 34.847656 -74.113281 34.355469 -72.886719 34.234375 -72.886719 L 33.988281 -72.886719 C 34.234375 -74.480469 33.007812 -75.953125 32.515625 -77.304688 C 32.515625 -77.546875 32.269531 -78.039062 32.269531 -78.039062 C 32.027344 -78.285156 29.816406 -79.757812 29.570312 -80.003906 C 29.449219 -80.125 28.957031 -80.984375 28.835938 -81.105469 C 28.710938 -81.230469 26.996094 -81.351562 26.871094 -81.351562 C 26.625 -81.476562 25.03125 -82.335938 24.785156 -82.457031 C 24.664062 -82.457031 23.558594 -82.457031 22.824219 -82.457031 C 22.453125 -82.457031 22.210938 -82.457031 22.085938 -82.457031 C 21.839844 -82.457031 20.492188 -82.824219 20.367188 -82.824219 C 20.125 -82.703125 18.527344 -81.84375 18.28125 -81.71875 C 18.28125 -81.71875 17.425781 -81.476562 17.300781 -81.351562 C 16.074219 -80.738281 12.761719 -78.777344 12.636719 -78.652344 L 2.453125 -68.222656 C -0.734375 -65.03125 -6.011719 -51.289062 -7.363281 -47.117188 C -7.609375 -46.628906 -8.097656 -44.050781 -8.097656 -43.4375 C -8.464844 -36.6875 -7.730469 -30.183594 -3.3125 -24.785156 C -3.066406 -24.539062 -2.207031 -23.558594 -1.964844 -23.4375 Z M 2.085938 -29.203125 C 1.472656 -32.761719 0.980469 -37.054688 2.085938 -40.738281 C 2.207031 -41.226562 2.945312 -42.332031 2.699219 -43.070312 L 5.152344 -48.589844 C 5.03125 -48.589844 5.03125 -49.082031 5.152344 -49.203125 C 5.152344 -49.203125 5.398438 -49.570312 5.398438 -49.570312 C 5.765625 -50.0625 6.75 -51.660156 6.871094 -51.902344 C 6.871094 -52.027344 7.117188 -53.128906 7.117188 -53.253906 C 7.238281 -53.5 8.464844 -55.339844 8.835938 -55.953125 C 8.835938 -56.074219 9.078125 -56.320312 9.203125 -56.320312 L 12.882812 -62.824219 L 21.105469 -73.992188 C 21.226562 -73.992188 21.71875 -74.234375 21.71875 -74.234375 C 21.839844 -74.480469 22.945312 -76.078125 23.066406 -76.320312 C 23.558594 -76.933594 24.417969 -77.058594 25.152344 -77.058594 C 25.644531 -76.933594 27.976562 -76.445312 28.46875 -76.320312 C 29.570312 -75.707031 29.324219 -74.605469 29.570312 -73.621094 C 29.695312 -72.761719 30.675781 -68.960938 30.921875 -68.222656 C 31.414062 -67.730469 32.394531 -67.363281 32.269531 -66.503906 C 32.148438 -65.890625 31.65625 -63.683594 31.535156 -63.4375 C 31.535156 -63.316406 31.289062 -62.824219 31.167969 -62.824219 L 28.222656 -49.570312 C 28.34375 -48.101562 27.609375 -46.75 27.855469 -45.15625 L 12.636719 -28.835938 C 12.394531 -28.710938 10.0625 -27.117188 9.203125 -26.503906 C 8.464844 -26.011719 7.730469 -25.769531 7.117188 -25.769531 C 4.664062 -25.769531 3.191406 -27.117188 2.085938 -29.203125 Z M 38.039062 -33.988281 C 38.039062 -34.234375 38.285156 -36.441406 38.285156 -36.6875 C 38.285156 -36.8125 38.285156 -37.914062 38.285156 -38.039062 C 38.652344 -40.246094 40.492188 -42.085938 40 -44.417969 L 45.15625 -67.117188 C 45.15625 -67.242188 45.398438 -67.242188 45.398438 -67.117188 C 45.644531 -66.996094 46.136719 -66.503906 46.136719 -66.503906 C 46.257812 -66.261719 46.257812 -65.15625 46.136719 -64.789062 L 44.417969 -55.339844 L 44.417969 -58.40625 L 44.050781 -58.40625 L 41.71875 -45.523438 L 41.71875 -45.15625 L 39.386719 -33.253906 C 39.265625 -32.882812 38.40625 -32.515625 38.039062 -32.640625 C 38.039062 -32.761719 38.039062 -33.742188 38.039062 -33.988281 Z M 46.503906 -68.589844 C 46.871094 -68.589844 46.871094 -67.855469 46.503906 -67.855469 C 46.136719 -67.855469 46.136719 -68.589844 46.503906 -68.589844 Z M 32.515625 -69.574219 C 32.761719 -69.449219 32.761719 -68.960938 32.515625 -68.835938 C 32.394531 -68.714844 32.394531 -69.695312 32.515625 -69.574219 Z M 31.535156 -75.339844 C 31.78125 -75.21875 31.78125 -75.09375 31.535156 -74.972656 C 31.414062 -74.972656 31.414062 -75.339844 31.535156 -75.339844 Z M 30.921875 -77.304688 C 31.167969 -77.304688 31.167969 -76.691406 30.921875 -76.691406 C 30.554688 -76.691406 30.554688 -77.304688 30.921875 -77.304688 Z M 30.921875 -77.304688 "/></g></g></g><g fill="#ffffff" fill-opacity="1"><g transform="translate(562.368013, 237.681538)"><g><path d="M 5.765625 -19.632812 C 6.503906 -19.386719 7.484375 -19.265625 8.464844 -19.265625 C 15.214844 -19.265625 25.890625 -23.066406 31.535156 -26.75 C 35.953125 -29.449219 40.859375 -33.988281 44.171875 -37.671875 C 44.171875 -37.792969 45.398438 -38.773438 45.398438 -38.898438 C 45.523438 -39.140625 46.75 -40.859375 46.871094 -41.105469 C 46.996094 -41.71875 47.730469 -43.683594 47.730469 -43.929688 C 47.855469 -44.542969 47.484375 -45.769531 46.871094 -46.136719 L 33.621094 -34.113281 L 23.3125 -27.117188 C 22.453125 -26.382812 19.019531 -25.277344 18.160156 -24.664062 C 16.6875 -23.925781 12.882812 -23.3125 11.167969 -23.3125 C 10.429688 -23.191406 9.324219 -22.945312 8.34375 -22.945312 C 7.730469 -22.945312 7.238281 -22.945312 6.75 -23.3125 C 6.625 -23.3125 6.257812 -24.171875 6.136719 -24.296875 C 6.011719 -24.417969 5.523438 -24.910156 5.523438 -25.03125 L 4.90625 -28.710938 L 9.695312 -46.75 L 13.988281 -54.972656 C 14.722656 -55.339844 15.582031 -56.199219 15.582031 -57.058594 L 22.210938 -64.417969 C 24.785156 -65.523438 25.152344 -67.855469 26.871094 -69.449219 C 27.730469 -70.0625 30.308594 -72.273438 30.796875 -72.640625 C 30.921875 -72.761719 32.761719 -73.375 33.007812 -73.5 C 33.253906 -73.867188 34.96875 -75.339844 35.09375 -75.707031 L 35.460938 -75.707031 C 35.460938 -75.585938 35.460938 -75.09375 35.460938 -74.847656 C 35.339844 -73.867188 34.96875 -71.535156 34.96875 -71.414062 L 28.222656 -59.386719 C 28.222656 -58.652344 30.921875 -57.546875 31.414062 -57.425781 C 32.148438 -57.425781 33.867188 -57.425781 34.601562 -57.792969 C 34.726562 -57.917969 35.585938 -58.652344 35.828125 -59.019531 C 36.320312 -59.632812 38.039062 -61.964844 38.285156 -62.457031 C 38.285156 -62.578125 38.527344 -63.316406 38.652344 -63.4375 C 38.773438 -63.929688 39.140625 -68.347656 39.265625 -68.835938 C 39.265625 -68.960938 39.878906 -70.1875 40 -70.433594 C 40.613281 -73.375 40.246094 -76.199219 39.265625 -78.898438 C 39.140625 -79.144531 38.773438 -79.878906 38.652344 -79.878906 L 33.867188 -81.71875 C 33.128906 -81.71875 32.269531 -82.089844 31.414062 -82.089844 C 31.289062 -82.089844 31.167969 -82.089844 31.042969 -82.089844 C 28.957031 -81.71875 26.75 -81.597656 24.785156 -81.105469 C 23.804688 -80.738281 19.632812 -78.53125 18.773438 -78.039062 C 17.914062 -77.425781 14.109375 -74.359375 13.375 -73.5 C 12.882812 -73.5 12.515625 -73.132812 12.394531 -72.640625 L 7.363281 -67.242188 L 1.964844 -58.40625 C 1.839844 -58.40625 0.734375 -56.199219 0.734375 -56.199219 L -0.859375 -51.78125 C -1.59375 -51.660156 -0.734375 -50.675781 -1.472656 -50.429688 L -2.699219 -46.75 C -3.3125 -46.628906 -3.066406 -45.644531 -3.066406 -45.398438 C -3.191406 -44.785156 -4.171875 -39.511719 -4.292969 -38.773438 C -4.417969 -37.914062 -4.417969 -33.375 -4.292969 -32.515625 C -3.679688 -31.78125 -4.050781 -31.042969 -3.558594 -30.308594 C -3.3125 -29.449219 -0.980469 -25.152344 -0.492188 -24.296875 C 0.121094 -23.066406 3.4375 -20.125 5.765625 -19.632812 Z M 7.363281 -29.082031 C 7.363281 -28.46875 7.609375 -27.484375 7.730469 -27.484375 L 8.097656 -27.484375 C 7.976562 -28.222656 7.976562 -31.289062 8.097656 -31.78125 C 8.222656 -33.988281 8.835938 -36.199219 8.589844 -38.285156 L 10.183594 -43.3125 L 10.550781 -43.558594 C 10.550781 -43.4375 10.550781 -42.824219 10.550781 -42.578125 C 10.429688 -42.085938 9.9375 -40 9.9375 -39.511719 C 9.9375 -39.511719 10.183594 -39.511719 10.183594 -39.511719 C 10.308594 -39.511719 10.550781 -40 10.550781 -40 L 13.621094 -50.1875 L 13.621094 -50.429688 C 12.882812 -50.0625 11.902344 -45.644531 11.167969 -46.136719 C 10.921875 -45.769531 9.9375 -44.296875 9.9375 -43.804688 C 9.570312 -42.945312 8.222656 -38.527344 8.097656 -37.546875 C 8.222656 -34.726562 7.117188 -31.78125 7.363281 -29.082031 Z M 10.921875 -44.910156 C 10.921875 -45.03125 11.167969 -45.277344 11.167969 -45.398438 C 11.289062 -45.15625 11.042969 -44.785156 10.921875 -44.542969 C 10.921875 -44.664062 10.921875 -44.785156 10.921875 -44.910156 Z M 10.921875 -44.910156 "/></g></g></g><g fill="#ffffff" fill-opacity="1"><g transform="translate(617.215003, 237.681538)"><g><path d="M -1.226562 -7.484375 C -0.613281 -6.992188 0 -6.871094 0.613281 -6.871094 C 1.839844 -6.871094 2.820312 -7.609375 3.925781 -8.464844 C 4.292969 -10.429688 2.578125 -12.636719 2.578125 -12.882812 L 10.0625 -41.71875 C 9.9375 -41.964844 9.9375 -43.4375 10.0625 -43.683594 C 10.0625 -43.804688 10.550781 -44.296875 10.675781 -44.417969 C 10.796875 -44.417969 11.042969 -44.417969 11.042969 -44.417969 L 14.480469 -35.953125 C 14.847656 -35.707031 14.96875 -34.847656 15.09375 -34.601562 C 17.546875 -31.042969 21.105469 -26.625 24.539062 -24.050781 C 25.398438 -23.558594 29.203125 -21.597656 30.0625 -21.351562 C 32.761719 -21.351562 35.460938 -21.351562 38.160156 -21.71875 C 38.40625 -21.839844 39.511719 -22.578125 39.878906 -22.699219 C 40 -22.699219 41.71875 -22.699219 41.84375 -22.699219 C 42.945312 -22.824219 44.171875 -23.683594 44.910156 -24.417969 L 50.675781 -26.382812 C 50.800781 -26.382812 51.78125 -27.117188 52.027344 -27.484375 C 53.375 -28.710938 56.933594 -32.269531 57.179688 -32.515625 L 66.261719 -45.03125 C 66.382812 -45.15625 66.628906 -46.382812 66.628906 -46.75 C 66.628906 -46.871094 66.382812 -47.242188 66.261719 -47.363281 C 65.402344 -48.589844 64.542969 -49.203125 63.683594 -49.203125 C 62.703125 -49.203125 61.71875 -48.34375 61.230469 -46.75 L 54.359375 -36.933594 C 53.867188 -34.847656 44.417969 -29.203125 42.578125 -28.46875 C 41.597656 -27.976562 39.140625 -27.730469 37.054688 -27.730469 C 35.707031 -27.730469 34.601562 -27.855469 34.113281 -28.097656 L 28.710938 -31.167969 L 22.210938 -39.265625 L 21.839844 -40 L 15.953125 -48.222656 L 31.414062 -55.214844 L 32.027344 -55.214844 C 33.742188 -55.214844 39.511719 -61.230469 40.492188 -62.332031 C 40.984375 -62.457031 41.964844 -62.824219 42.210938 -63.316406 L 44.542969 -69.816406 C 44.664062 -69.941406 44.664062 -73.007812 44.542969 -74.234375 C 44.542969 -74.972656 44.296875 -77.425781 44.296875 -77.546875 C 44.050781 -78.40625 42.578125 -81.230469 42.210938 -81.597656 C 41.597656 -82.335938 38.527344 -84.910156 37.792969 -85.402344 C 36.320312 -85.769531 34.726562 -86.136719 33.128906 -86.136719 C 31.65625 -86.136719 30.183594 -85.890625 28.957031 -85.035156 C 28.835938 -84.910156 27.238281 -83.4375 26.996094 -83.316406 C 26.75 -83.191406 24.539062 -82.824219 24.296875 -82.703125 C 23.925781 -82.578125 22.824219 -81.84375 22.578125 -81.597656 L 22.578125 -82.335938 L 26.257812 -93.132812 C 26.257812 -93.253906 26.257812 -93.5 26.257812 -93.5 C 26.257812 -93.621094 26.625 -94.113281 26.625 -94.238281 C 26.75 -94.605469 27.484375 -97.550781 27.609375 -98.285156 C 27.609375 -98.285156 27.609375 -98.53125 27.609375 -98.652344 C 26.871094 -98.039062 26.136719 -96.566406 25.890625 -95.953125 L 21.226562 -80.003906 C 21.105469 -79.632812 20.246094 -79.019531 19.878906 -78.898438 C 19.878906 -79.019531 19.878906 -79.265625 19.878906 -79.265625 C 20.125 -80.492188 20.738281 -83.804688 20.859375 -84.050781 C 20.980469 -84.421875 22.085938 -87.121094 22.210938 -87.363281 C 22.332031 -87.734375 22.824219 -90.1875 22.945312 -90.433594 C 22.945312 -90.554688 23.191406 -91.046875 23.191406 -91.167969 L 26.257812 -101.351562 C 26.75 -101.84375 26.871094 -103.195312 26.996094 -103.683594 C 26.996094 -104.667969 26.996094 -108.839844 26.996094 -109.820312 C 26.871094 -109.941406 26.75 -110.679688 26.625 -110.800781 C 26.257812 -111.539062 24.785156 -113.867188 24.539062 -114.238281 C 24.417969 -114.484375 23.4375 -115.21875 23.191406 -115.21875 C 22.699219 -115.21875 21.226562 -115.21875 20.859375 -114.851562 C 20.613281 -114.726562 20 -114.113281 19.878906 -113.867188 C 19.265625 -112.886719 16.933594 -108.101562 16.441406 -107.121094 C 16.195312 -106.628906 14.96875 -102.457031 14.722656 -101.964844 C 14.722656 -101.84375 14.480469 -101.476562 14.480469 -101.351562 L -6.378906 -20 L -3.925781 -9.816406 C -3.804688 -9.570312 -1.964844 -7.976562 -1.226562 -7.484375 Z M 14.109375 -54.847656 C 14.109375 -54.972656 14.109375 -55.460938 14.109375 -55.585938 C 14.234375 -56.199219 14.722656 -58.039062 14.722656 -58.285156 C 14.96875 -58.773438 16.441406 -61.597656 16.808594 -62.332031 C 16.808594 -62.457031 17.425781 -62.945312 17.425781 -63.070312 C 18.527344 -64.910156 17.546875 -66.628906 19.140625 -68.46875 C 19.386719 -68.589844 20.246094 -69.082031 20.492188 -69.082031 L 26.257812 -75.21875 C 26.382812 -75.585938 27.117188 -77.304688 27.238281 -77.546875 C 27.363281 -77.671875 27.609375 -77.917969 27.609375 -77.917969 C 28.097656 -78.164062 31.65625 -80.371094 32.027344 -80.617188 C 32.394531 -80.863281 32.882812 -81.597656 33.375 -81.351562 C 33.621094 -81.230469 34.847656 -80.492188 35.09375 -80.25 C 35.214844 -80.25 35.460938 -80.003906 35.460938 -80.003906 C 35.460938 -79.511719 35.460938 -77.425781 35.460938 -76.933594 C 35.214844 -75.585938 33.988281 -71.046875 33.742188 -70.433594 C 33.128906 -69.082031 30.308594 -64.789062 29.695312 -64.417969 L 20.859375 -57.300781 L 14.480469 -54.234375 L 13.742188 -54.234375 C 13.867188 -54.359375 13.988281 -54.726562 14.109375 -54.847656 Z M 23.558594 -87.734375 C 23.925781 -87.734375 23.925781 -87.121094 23.558594 -87.121094 C 23.191406 -87.121094 23.191406 -87.734375 23.558594 -87.734375 Z M 24.910156 -91.535156 C 25.277344 -91.535156 25.277344 -90.800781 24.910156 -90.800781 C 24.539062 -90.800781 24.539062 -91.535156 24.910156 -91.535156 Z M 24.910156 -91.535156 "/></g></g></g><g fill="#ffffff" fill-opacity="1"><g transform="translate(686.908561, 237.681538)"><g/></g></g><g fill="#ffffff" fill-opacity="1"><g transform="translate(734.270922, 237.681538)"><g><path d="M 32.027344 6.378906 L 31.167969 4.664062 L 31.167969 2.699219 C 31.289062 2.699219 31.414062 2.820312 31.535156 2.820312 C 32.148438 2.945312 32.882812 3.066406 33.253906 3.066406 L 33.988281 3.066406 C 34.234375 3.066406 34.726562 2.820312 34.847656 2.699219 C 35.09375 2.453125 38.773438 2.207031 39.265625 2.207031 L 63.929688 -1.105469 L 78.777344 -7.484375 L 85.035156 -12.636719 C 85.277344 -12.761719 86.261719 -13.867188 86.75 -14.355469 L 87.488281 -15.214844 L 87.363281 -14.96875 C 88.101562 -16.074219 91.535156 -21.839844 92.152344 -23.3125 C 92.273438 -23.925781 92.394531 -24.664062 92.394531 -24.785156 L 92.394531 -30.675781 C 92.394531 -30.921875 92.273438 -31.414062 92.152344 -31.535156 L 91.90625 -31.902344 L 89.820312 -37.054688 C 89.449219 -38.039062 87.609375 -41.105469 87.242188 -41.351562 L 87.609375 -41.105469 L 77.179688 -51.289062 L 73.132812 -53.746094 L 73.867188 -54.113281 C 74.113281 -54.113281 74.972656 -54.113281 75.460938 -54.234375 C 76.566406 -54.234375 78.285156 -54.234375 78.40625 -54.359375 L 79.144531 -54.601562 C 79.390625 -54.726562 79.632812 -54.847656 79.511719 -54.847656 C 79.757812 -54.847656 80.25 -55.09375 80.371094 -55.214844 C 80.492188 -55.339844 82.210938 -55.585938 82.578125 -55.585938 C 89.328125 -57.546875 97.917969 -62.703125 103.070312 -67.363281 L 104.910156 -69.203125 C 105.28125 -69.082031 105.894531 -69.449219 106.136719 -69.941406 C 106.261719 -70.433594 106.753906 -70.800781 107.121094 -70.921875 C 107.734375 -71.414062 108.347656 -72.027344 108.839844 -72.640625 L 109.453125 -73.375 C 109.941406 -74.234375 113.867188 -78.40625 114.726562 -79.144531 C 115.21875 -79.511719 116.570312 -81.84375 116.9375 -82.824219 C 117.183594 -83.683594 118.164062 -87.121094 118.164062 -87.976562 L 118.285156 -88.222656 C 118.65625 -88.714844 118.65625 -90.554688 118.53125 -91.292969 C 118.53125 -92.273438 118.410156 -92.886719 118.285156 -93.621094 C 118.164062 -94.359375 118.164062 -95.09375 118.164062 -95.832031 C 118.164062 -96.9375 117.550781 -98.898438 117.058594 -100.617188 L 116.324219 -103.316406 C 116.324219 -103.5625 115.832031 -103.929688 115.585938 -104.050781 C 115.710938 -104.050781 115.21875 -104.910156 114.726562 -105.769531 L 113.625 -107.980469 L 113.625 -107.734375 C 113.378906 -108.46875 112.765625 -109.082031 112.394531 -109.453125 L 111.90625 -109.820312 L 111.660156 -110.554688 L 108.839844 -113.132812 C 108.839844 -113.132812 108.222656 -113.992188 107.609375 -114.359375 L 107.488281 -114.359375 L 106.875 -115.21875 C 106.382812 -115.832031 105.894531 -116.445312 105.15625 -116.9375 L 105.28125 -116.9375 L 97.179688 -122.089844 C 96.8125 -122.210938 94.851562 -122.828125 93.378906 -123.195312 L 93.5 -123.195312 L 91.167969 -123.929688 C 90.0625 -124.054688 85.523438 -124.421875 83.070312 -124.542969 C 82.578125 -124.542969 82.210938 -124.667969 81.84375 -124.667969 L 75.953125 -124.667969 L 52.027344 -118.285156 L 27.609375 -104.910156 L 14.234375 -91.78125 L 10.796875 -86.136719 L 11.042969 -86.136719 L 10.0625 -85.402344 L 9.324219 -83.683594 C 8.957031 -83.070312 8.589844 -82.210938 8.464844 -81.71875 L 7.851562 -80.863281 C 7.851562 -80.863281 7.238281 -80.371094 7.117188 -79.757812 C 6.136719 -77.304688 5.765625 -75.832031 5.765625 -73.253906 C 5.765625 -72.761719 6.136719 -72.148438 6.257812 -71.90625 C 6.503906 -70.554688 6.871094 -67.488281 7.484375 -66.261719 L 10.183594 -63.558594 C 10.308594 -63.4375 10.796875 -63.191406 11.042969 -63.191406 C 11.167969 -63.191406 11.65625 -62.703125 11.902344 -62.332031 C 13.867188 -60.371094 16.195312 -59.265625 19.019531 -58.773438 L 19.386719 -58.773438 C 19.632812 -58.773438 20 -58.773438 20.246094 -58.773438 C 22.085938 -58.773438 24.296875 -59.144531 24.664062 -61.351562 L 24.539062 -61.230469 C 24.785156 -61.84375 24.664062 -62.332031 24.417969 -62.824219 C 24.296875 -62.945312 24.296875 -62.945312 24.296875 -63.316406 C 23.804688 -66.015625 23.4375 -66.503906 20.738281 -67.730469 C 20.367188 -67.730469 19.878906 -67.855469 19.753906 -67.976562 L 19.878906 -67.976562 C 17.179688 -69.574219 16.933594 -72.027344 17.300781 -75.09375 C 17.667969 -75.585938 17.792969 -76.078125 17.792969 -76.199219 L 24.050781 -85.523438 L 34.113281 -95.707031 C 34.113281 -95.707031 34.726562 -96.078125 35.214844 -96.324219 C 35.460938 -96.324219 35.707031 -96.445312 35.953125 -96.566406 C 36.199219 -96.691406 36.566406 -96.9375 36.320312 -96.9375 L 37.054688 -97.304688 L 38.652344 -98.652344 L 40.371094 -99.511719 C 40.492188 -99.511719 41.226562 -100.003906 41.226562 -100.003906 C 41.597656 -100.003906 42.578125 -100.496094 43.558594 -100.984375 C 44.785156 -101.722656 46.015625 -102.457031 46.136719 -102.457031 C 46.257812 -102.582031 47.609375 -102.949219 47.730469 -102.949219 C 48.222656 -102.949219 49.328125 -103.683594 50.429688 -104.421875 L 50.308594 -104.296875 L 52.394531 -105.402344 C 53.128906 -105.523438 54.480469 -105.769531 54.726562 -105.894531 L 54.601562 -105.769531 L 59.265625 -107.488281 C 60.617188 -107.980469 62.332031 -108.46875 62.332031 -108.46875 L 63.070312 -109.207031 L 79.511719 -113.011719 L 86.136719 -113.011719 C 87.242188 -112.886719 91.414062 -112.394531 92.027344 -112.394531 L 93.253906 -112.394531 C 94.480469 -111.90625 96.324219 -110.800781 97.550781 -109.820312 L 97.425781 -109.941406 C 98.410156 -109.207031 99.757812 -107.734375 100.738281 -106.875 L 104.175781 -103.4375 C 104.296875 -103.070312 104.667969 -102.582031 104.910156 -102.210938 L 105.402344 -101.351562 L 105.894531 -99.878906 L 105.894531 -99.757812 C 106.136719 -98.777344 106.507812 -97.425781 106.875 -96.691406 L 106.875 -95.707031 C 106.136719 -90.433594 103.4375 -84.910156 100.738281 -80.371094 C 100.617188 -80.25 97.425781 -76.691406 96.324219 -75.339844 L 95.585938 -74.972656 L 95.707031 -75.09375 C 94.972656 -74.605469 92.152344 -72.148438 91.414062 -71.414062 C 91.167969 -71.414062 90.921875 -71.167969 90.679688 -71.046875 C 90.0625 -70.921875 86.875 -69.203125 86.015625 -68.589844 C 84.910156 -68.347656 82.089844 -67.242188 81.597656 -66.996094 L 80.738281 -66.628906 C 80.371094 -66.503906 80.125 -66.503906 80.003906 -66.503906 L 71.414062 -64.296875 L 70.433594 -64.296875 C 70.1875 -64.296875 69.695312 -64.050781 69.574219 -63.804688 L 67.242188 -63.191406 C 66.382812 -62.945312 65.644531 -62.703125 65.644531 -62.703125 C 65.402344 -62.703125 64.910156 -62.457031 64.789062 -62.332031 C 64.664062 -62.210938 61.472656 -62.210938 61.105469 -62.210938 C 60.738281 -62.210938 60.125 -61.964844 60.003906 -61.597656 L 59.144531 -61.597656 C 59.019531 -61.597656 57.792969 -61.351562 57.058594 -61.230469 L 52.886719 -60.492188 C 52.640625 -60.371094 50.308594 -59.511719 48.957031 -59.019531 L 49.082031 -59.019531 L 45.890625 -57.917969 L 44.542969 -57.917969 C 44.664062 -58.285156 44.664062 -58.40625 44.664062 -58.40625 C 44.785156 -58.40625 44.664062 -58.160156 44.910156 -58.652344 C 45.15625 -59.632812 45.769531 -60.617188 46.136719 -61.472656 C 46.136719 -61.71875 46.628906 -62.945312 46.75 -63.070312 C 46.871094 -63.4375 48.34375 -66.015625 48.835938 -66.75 L 48.957031 -66.875 C 48.714844 -66.628906 48.46875 -66.628906 48.46875 -66.628906 C 48.589844 -66.628906 48.714844 -66.75 48.957031 -66.996094 L 49.203125 -67.363281 L 49.941406 -69.574219 L 49.941406 -69.449219 C 50.675781 -71.167969 51.289062 -73.007812 52.515625 -74.480469 C 54.726562 -79.632812 57.546875 -85.648438 59.878906 -90.921875 C 60.125 -91.414062 60.371094 -93.007812 60.371094 -93.746094 C 59.386719 -95.707031 58.160156 -97.550781 57.300781 -99.511719 C 57.300781 -99.757812 57.179688 -100.003906 57.179688 -100.003906 C 56.199219 -101.476562 54.359375 -101.476562 53.867188 -101.476562 L 52.515625 -101.476562 C 52.273438 -101.476562 51.660156 -101.230469 51.535156 -100.984375 L 48.46875 -97.058594 L 22.699219 -44.296875 L 17.054688 -17.425781 L 17.054688 -11.535156 C 14.480469 -12.636719 11.78125 -14.355469 10.550781 -17.300781 L 10.550781 -17.179688 C 10.183594 -18.160156 9.570312 -22.824219 9.570312 -24.050781 C 9.324219 -24.785156 9.449219 -25.398438 9.570312 -26.011719 C 8.835938 -25.523438 10.308594 -27.609375 10.796875 -28.222656 L 11.410156 -29.449219 C 11.410156 -29.449219 11.289062 -29.695312 11.042969 -29.695312 C 10.921875 -29.695312 10.796875 -29.695312 10.675781 -29.570312 C 10.921875 -29.695312 11.289062 -30.308594 11.289062 -30.675781 C 11.289062 -30.675781 11.410156 -31.167969 11.535156 -31.414062 L 11.535156 -31.289062 C 11.902344 -32.148438 12.269531 -32.882812 11.78125 -33.867188 C 11.65625 -34.234375 11.167969 -34.96875 10.921875 -35.339844 C 10.796875 -35.460938 10.675781 -35.707031 10.675781 -35.460938 L 9.449219 -36.566406 L 8.835938 -36.566406 C 8.464844 -36.566406 8.097656 -36.566406 7.851562 -36.566406 C 7.238281 -36.566406 6.75 -36.441406 6.136719 -35.953125 L 1.964844 -32.148438 C 1.839844 -32.027344 1.351562 -30.796875 1.351562 -30.796875 L 1.351562 -30.0625 C 0.859375 -29.695312 0.613281 -29.203125 0.613281 -28.835938 C 0.367188 -28.222656 0.246094 -27.730469 0.246094 -27.484375 L 0.246094 -21.964844 C 0.734375 -19.019531 1.839844 -16.441406 2.945312 -13.988281 L 3.4375 -13.007812 C 3.925781 -12.023438 4.171875 -11.410156 4.171875 -11.410156 L 6.136719 -8.710938 C 6.75 -7.609375 7.609375 -6.625 7.976562 -6.378906 C 8.097656 -5.765625 8.710938 -5.277344 9.078125 -5.03125 L 8.710938 -5.152344 C 9.449219 -4.539062 13.496094 -1.59375 14.722656 -1.105469 C 15.339844 -0.734375 17.546875 0.121094 18.773438 0.367188 L 18.894531 0.492188 C 18.894531 0.859375 19.753906 3.679688 20.125 4.417969 L 20 4.292969 C 20.367188 5.152344 22.699219 9.324219 23.3125 10.183594 L 24.171875 11.042969 C 24.539062 11.535156 25.03125 11.902344 25.523438 12.148438 L 28.222656 13.742188 L 30.921875 13.742188 C 35.828125 13.128906 33.5 9.324219 32.027344 6.378906 Z M 43.4375 -50.0625 L 44.785156 -49.328125 L 45.277344 -49.328125 C 45.890625 -49.203125 46.996094 -49.082031 46.871094 -49.203125 L 47.730469 -48.835938 L 52.148438 -48.835938 C 52.273438 -48.835938 52.761719 -48.835938 53.253906 -48.714844 C 53.621094 -48.714844 54.113281 -48.589844 54.234375 -48.589844 L 55.214844 -48.589844 C 55.214844 -48.589844 55.707031 -48.222656 56.199219 -48.101562 C 56.8125 -47.855469 58.898438 -47.855469 59.386719 -47.855469 L 61.472656 -47.855469 C 61.964844 -47.730469 62.945312 -46.996094 63.558594 -46.628906 C 64.175781 -46.136719 64.789062 -45.769531 65.644531 -45.769531 C 65.890625 -45.769531 66.261719 -45.769531 66.628906 -45.890625 L 70.433594 -44.542969 L 79.511719 -34.601562 L 79.390625 -34.726562 C 80.003906 -33.742188 80.617188 -32.027344 80.617188 -30.796875 L 78.039062 -26.257812 C 78.039062 -26.382812 77.917969 -26.382812 77.917969 -26.382812 L 57.546875 -15.214844 L 42.332031 -12.148438 L 40 -11.042969 L 40.246094 -11.167969 C 40.246094 -11.167969 35.09375 -10.429688 33.007812 -10.0625 C 32.761719 -10.0625 32.394531 -10.0625 32.148438 -10.0625 C 31.65625 -10.0625 31.167969 -10.0625 30.554688 -10.308594 L 30.554688 -13.253906 L 32.640625 -24.050781 L 32.640625 -25.152344 L 41.71875 -52.027344 C 41.597656 -51.414062 42.699219 -50.554688 43.4375 -50.0625 Z M 62.332031 -5.152344 C 62.457031 -5.277344 62.703125 -5.398438 62.945312 -5.398438 C 63.4375 -5.398438 64.050781 -4.90625 64.050781 -4.292969 L 62.945312 -4.785156 C 62.824219 -5.03125 62.578125 -5.152344 62.332031 -5.152344 Z M 101.722656 -70.433594 C 101.722656 -70.554688 101.722656 -70.554688 101.84375 -70.554688 C 101.84375 -70.433594 101.722656 -70.433594 101.722656 -70.433594 Z M 100.984375 -68.960938 L 101.109375 -68.960938 L 100.984375 -68.835938 Z M 100.984375 -68.960938 "/></g></g></g><g fill="#ffffff" fill-opacity="1"><g transform="translate(855.866115, 237.681538)"><g><path d="M -1.964844 -23.4375 C -1.351562 -23.066406 1.964844 -21.105469 2.699219 -20.738281 C 3.558594 -20.738281 4.539062 -20.738281 5.398438 -20.738281 C 6.257812 -20.980469 9.570312 -22.085938 10.183594 -22.453125 C 11.042969 -22.824219 14.355469 -25.277344 14.96875 -25.769531 L 27.117188 -37.671875 L 27.484375 -37.300781 C 27.238281 -34.113281 27.730469 -31.902344 28.835938 -28.835938 C 28.957031 -28.710938 29.203125 -28.222656 29.203125 -28.222656 C 29.816406 -27.484375 32.269531 -25.03125 32.515625 -24.785156 C 33.5 -24.050781 34.847656 -23.3125 36.074219 -23.3125 C 36.566406 -23.3125 37.179688 -23.558594 37.671875 -23.804688 C 37.671875 -24.171875 38.40625 -25.769531 38.652344 -26.136719 C 38.773438 -26.257812 39.878906 -27.117188 40 -27.117188 C 41.84375 -28.710938 43.683594 -30.0625 45.398438 -31.902344 C 45.523438 -32.027344 46.015625 -32.882812 46.136719 -32.882812 C 46.382812 -33.253906 48.589844 -35.339844 48.835938 -35.707031 C 48.957031 -35.707031 49.203125 -36.199219 49.203125 -36.320312 L 52.515625 -38.652344 L 59.019531 -46.871094 C 59.144531 -47.363281 59.511719 -49.695312 59.632812 -50.1875 C 59.878906 -51.167969 60.859375 -52.148438 60.371094 -53.253906 C 60.246094 -53.5 59.632812 -53.746094 59.265625 -53.746094 C 59.144531 -53.746094 59.019531 -53.621094 59.019531 -53.621094 L 41.351562 -34.96875 L 40.738281 -34.601562 C 40.613281 -34.96875 40.613281 -36.320312 40.738281 -36.6875 C 40.859375 -37.792969 42.085938 -42.945312 42.457031 -44.171875 C 42.332031 -44.296875 42.332031 -45.03125 42.457031 -45.15625 C 42.578125 -46.136719 43.3125 -50.675781 43.4375 -51.535156 C 43.4375 -52.148438 43.929688 -52.515625 44.417969 -52.640625 L 48.222656 -71.289062 L 47.484375 -71.90625 C 46.996094 -71.660156 46.871094 -70.921875 46.871094 -70.554688 C 46.503906 -71.535156 46.503906 -72.640625 46.503906 -73.621094 C 46.382812 -73.746094 45.890625 -73.992188 45.769531 -73.992188 L 41.105469 -80.003906 C 40.984375 -80.125 39.140625 -80.617188 38.285156 -80.738281 C 38.039062 -80.863281 37.914062 -80.738281 37.671875 -80.371094 C 37.054688 -79.390625 35.460938 -76.566406 35.339844 -76.320312 C 35.214844 -76.199219 34.96875 -74.847656 34.96875 -74.605469 C 34.847656 -74.113281 34.355469 -72.886719 34.234375 -72.886719 L 33.988281 -72.886719 C 34.234375 -74.480469 33.007812 -75.953125 32.515625 -77.304688 C 32.515625 -77.546875 32.269531 -78.039062 32.269531 -78.039062 C 32.027344 -78.285156 29.816406 -79.757812 29.570312 -80.003906 C 29.449219 -80.125 28.957031 -80.984375 28.835938 -81.105469 C 28.710938 -81.230469 26.996094 -81.351562 26.871094 -81.351562 C 26.625 -81.476562 25.03125 -82.335938 24.785156 -82.457031 C 24.664062 -82.457031 23.558594 -82.457031 22.824219 -82.457031 C 22.453125 -82.457031 22.210938 -82.457031 22.085938 -82.457031 C 21.839844 -82.457031 20.492188 -82.824219 20.367188 -82.824219 C 20.125 -82.703125 18.527344 -81.84375 18.28125 -81.71875 C 18.28125 -81.71875 17.425781 -81.476562 17.300781 -81.351562 C 16.074219 -80.738281 12.761719 -78.777344 12.636719 -78.652344 L 2.453125 -68.222656 C -0.734375 -65.03125 -6.011719 -51.289062 -7.363281 -47.117188 C -7.609375 -46.628906 -8.097656 -44.050781 -8.097656 -43.4375 C -8.464844 -36.6875 -7.730469 -30.183594 -3.3125 -24.785156 C -3.066406 -24.539062 -2.207031 -23.558594 -1.964844 -23.4375 Z M 2.085938 -29.203125 C 1.472656 -32.761719 0.980469 -37.054688 2.085938 -40.738281 C 2.207031 -41.226562 2.945312 -42.332031 2.699219 -43.070312 L 5.152344 -48.589844 C 5.03125 -48.589844 5.03125 -49.082031 5.152344 -49.203125 C 5.152344 -49.203125 5.398438 -49.570312 5.398438 -49.570312 C 5.765625 -50.0625 6.75 -51.660156 6.871094 -51.902344 C 6.871094 -52.027344 7.117188 -53.128906 7.117188 -53.253906 C 7.238281 -53.5 8.464844 -55.339844 8.835938 -55.953125 C 8.835938 -56.074219 9.078125 -56.320312 9.203125 -56.320312 L 12.882812 -62.824219 L 21.105469 -73.992188 C 21.226562 -73.992188 21.71875 -74.234375 21.71875 -74.234375 C 21.839844 -74.480469 22.945312 -76.078125 23.066406 -76.320312 C 23.558594 -76.933594 24.417969 -77.058594 25.152344 -77.058594 C 25.644531 -76.933594 27.976562 -76.445312 28.46875 -76.320312 C 29.570312 -75.707031 29.324219 -74.605469 29.570312 -73.621094 C 29.695312 -72.761719 30.675781 -68.960938 30.921875 -68.222656 C 31.414062 -67.730469 32.394531 -67.363281 32.269531 -66.503906 C 32.148438 -65.890625 31.65625 -63.683594 31.535156 -63.4375 C 31.535156 -63.316406 31.289062 -62.824219 31.167969 -62.824219 L 28.222656 -49.570312 C 28.34375 -48.101562 27.609375 -46.75 27.855469 -45.15625 L 12.636719 -28.835938 C 12.394531 -28.710938 10.0625 -27.117188 9.203125 -26.503906 C 8.464844 -26.011719 7.730469 -25.769531 7.117188 -25.769531 C 4.664062 -25.769531 3.191406 -27.117188 2.085938 -29.203125 Z M 38.039062 -33.988281 C 38.039062 -34.234375 38.285156 -36.441406 38.285156 -36.6875 C 38.285156 -36.8125 38.285156 -37.914062 38.285156 -38.039062 C 38.652344 -40.246094 40.492188 -42.085938 40 -44.417969 L 45.15625 -67.117188 C 45.15625 -67.242188 45.398438 -67.242188 45.398438 -67.117188 C 45.644531 -66.996094 46.136719 -66.503906 46.136719 -66.503906 C 46.257812 -66.261719 46.257812 -65.15625 46.136719 -64.789062 L 44.417969 -55.339844 L 44.417969 -58.40625 L 44.050781 -58.40625 L 41.71875 -45.523438 L 41.71875 -45.15625 L 39.386719 -33.253906 C 39.265625 -32.882812 38.40625 -32.515625 38.039062 -32.640625 C 38.039062 -32.761719 38.039062 -33.742188 38.039062 -33.988281 Z M 46.503906 -68.589844 C 46.871094 -68.589844 46.871094 -67.855469 46.503906 -67.855469 C 46.136719 -67.855469 46.136719 -68.589844 46.503906 -68.589844 Z M 32.515625 -69.574219 C 32.761719 -69.449219 32.761719 -68.960938 32.515625 -68.835938 C 32.394531 -68.714844 32.394531 -69.695312 32.515625 -69.574219 Z M 31.535156 -75.339844 C 31.78125 -75.21875 31.78125 -75.09375 31.535156 -74.972656 C 31.414062 -74.972656 31.414062 -75.339844 31.535156 -75.339844 Z M 30.921875 -77.304688 C 31.167969 -77.304688 31.167969 -76.691406 30.921875 -76.691406 C 30.554688 -76.691406 30.554688 -77.304688 30.921875 -77.304688 Z M 30.921875 -77.304688 "/></g></g></g><g fill="#ffffff" fill-opacity="1"><g transform="translate(920.038211, 237.681538)"><g><path d="M 1.226562 17.179688 C 1.71875 17.300781 4.417969 18.40625 5.152344 18.652344 C 5.277344 18.652344 5.765625 18.652344 5.890625 18.652344 C 6.257812 18.527344 9.816406 17.667969 10.308594 17.667969 C 10.308594 17.546875 10.550781 17.546875 10.675781 17.546875 C 11.042969 17.546875 11.535156 17.667969 11.65625 17.667969 C 11.78125 17.667969 12.515625 17.179688 12.636719 17.179688 C 12.761719 17.179688 14.234375 17.179688 14.355469 17.179688 C 15.214844 16.6875 16.6875 15.460938 17.300781 14.601562 C 17.425781 14.355469 18.160156 12.761719 18.28125 12.636719 C 18.652344 12.148438 21.839844 8.464844 22.085938 7.851562 C 22.824219 6.503906 24.539062 2.453125 24.539062 1.964844 L 24.539062 0.734375 L 24.171875 0.734375 L 20.125 8.957031 C 20.125 9.078125 19.632812 9.570312 19.386719 9.695312 C 19.265625 9.816406 18.28125 10.796875 18.039062 10.921875 C 18.527344 9.816406 20.738281 5.152344 21.105469 4.171875 C 21.226562 4.050781 21.472656 2.820312 21.472656 2.578125 C 22.085938 1.226562 25.03125 -5.765625 25.644531 -7.363281 C 25.769531 -7.609375 26.257812 -9.695312 26.382812 -9.9375 C 26.503906 -10.308594 27.609375 -12.515625 27.855469 -12.882812 L 34.355469 -34.847656 C 34.355469 -34.480469 34.234375 -33.007812 34.234375 -32.640625 C 34.113281 -31.042969 33.375 -26.75 33.253906 -26.257812 L 25.644531 -1.839844 C 25.523438 -1.472656 25.769531 -1.351562 26.011719 -0.980469 C 26.011719 -1.105469 26.257812 -1.472656 26.382812 -1.472656 C 26.75 -2.085938 27.609375 -3.804688 27.730469 -4.171875 L 34.96875 -29.203125 L 34.234375 -29.203125 C 34.234375 -29.324219 34.234375 -29.941406 34.234375 -30.0625 C 34.480469 -30.675781 35.460938 -34.234375 35.707031 -35.339844 C 35.828125 -35.828125 35.953125 -36.199219 36.566406 -36.320312 L 40.859375 -50.429688 C 40.246094 -54.113281 41.351562 -56.566406 42.332031 -60.125 C 42.457031 -60.738281 42.824219 -61.230469 43.3125 -61.597656 L 46.136719 -73.132812 C 46.257812 -73.621094 45.769531 -73.992188 45.398438 -73.992188 C 45.277344 -73.992188 45.15625 -73.992188 45.15625 -73.867188 L 43.3125 -66.503906 C 43.4375 -65.523438 42.332031 -63.4375 41.597656 -63.804688 L 43.804688 -72.394531 C 44.542969 -73.5 44.664062 -77.058594 44.171875 -78.285156 C 43.929688 -78.777344 42.578125 -81.597656 42.210938 -82.089844 C 41.472656 -82.949219 40.613281 -83.929688 39.511719 -84.296875 C 39.019531 -84.542969 38.527344 -84.664062 38.160156 -84.664062 C 37.792969 -84.664062 37.425781 -84.542969 37.054688 -84.296875 C 35.585938 -82.703125 35.09375 -80.863281 33.867188 -78.652344 C 33.621094 -78.40625 33.5 -78.285156 33.253906 -78.285156 C 32.761719 -78.285156 32.394531 -79.390625 32.148438 -79.757812 C 32.148438 -80.003906 31.902344 -80.25 31.78125 -80.25 C 31.535156 -80.371094 29.449219 -81.84375 29.203125 -82.089844 C 29.082031 -82.089844 27.976562 -83.4375 27.855469 -83.5625 C 27.238281 -84.175781 26.257812 -84.421875 25.523438 -84.664062 C 25.277344 -84.789062 24.539062 -85.035156 24.417969 -85.035156 C 24.417969 -85.035156 23.558594 -84.664062 23.4375 -84.664062 C 23.3125 -84.664062 21.964844 -84.664062 21.71875 -84.664062 C 20.859375 -84.542969 17.054688 -83.4375 16.320312 -83.070312 C 16.195312 -82.949219 14.355469 -82.089844 13.742188 -81.71875 C 13.742188 -81.71875 13.496094 -81.230469 13.375 -81.230469 C 13.253906 -81.105469 12.269531 -80.617188 12.023438 -80.617188 L 7.238281 -74.972656 L 0.121094 -62.210938 C -0.246094 -61.105469 -0.613281 -59.757812 -1.226562 -58.652344 L -4.292969 -47.117188 C -4.171875 -46.503906 -4.539062 -45.523438 -4.664062 -44.785156 L -4.785156 -35.585938 C -4.785156 -35.460938 -4.539062 -34.234375 -4.417969 -33.988281 C -4.171875 -33.128906 -1.964844 -28.46875 -1.472656 -27.484375 C -0.246094 -25.523438 2.820312 -24.296875 5.644531 -24.296875 C 7.117188 -24.296875 8.464844 -24.664062 9.449219 -25.277344 C 9.570312 -25.398438 10.550781 -26.257812 10.796875 -26.625 C 10.796875 -26.75 11.042969 -27.363281 11.167969 -27.484375 C 12.636719 -28.835938 14.355469 -30.0625 15.707031 -31.535156 C 15.953125 -31.78125 18.28125 -34.113281 18.527344 -34.480469 C 18.652344 -34.601562 19.632812 -35.09375 19.878906 -35.339844 C 20 -35.339844 20.246094 -35.339844 20.246094 -35.339844 C 20.492188 -33.867188 19.878906 -31.78125 19.511719 -30.675781 L 4.292969 8.957031 C 4.292969 9.078125 3.066406 10.429688 2.699219 10.921875 C 2.453125 11.167969 1.71875 11.65625 1.71875 11.65625 L -3.558594 11.65625 C -4.292969 11.167969 -6.011719 10.921875 -6.503906 10.0625 C -6.625 9.816406 -7.484375 8.835938 -7.484375 8.589844 C -7.730469 8.34375 -8.957031 7.117188 -9.203125 6.871094 L -12.515625 -0.734375 C -12.148438 -3.066406 -13.742188 -5.523438 -16.074219 -5.523438 C -16.195312 -5.523438 -16.441406 -5.523438 -16.566406 -5.523438 C -16.933594 -3.3125 -16.441406 -1.472656 -15.707031 0.492188 C -15.09375 0.367188 -14.601562 0.980469 -14.96875 1.59375 C -14.847656 2.332031 -13.375 6.011719 -13.007812 6.871094 C -12.761719 7.238281 -10.796875 9.449219 -10.308594 10.0625 C -10.0625 10.308594 -8.464844 11.410156 -8.222656 11.65625 C -8.222656 11.65625 -7.976562 11.902344 -7.976562 11.902344 C -7.851562 12.023438 -6.257812 12.761719 -6.136719 13.128906 C -5.152344 13.742188 -4.539062 14.96875 -3.4375 15.339844 C -3.191406 15.460938 -1.226562 15.582031 -1.105469 15.707031 C -0.859375 15.828125 0.980469 17.054688 1.226562 17.179688 Z M 16.566406 13.375 C 16.808594 13.867188 15.828125 15.460938 15.214844 15.460938 C 15.09375 15.460938 14.96875 15.460938 14.847656 15.339844 Z M 2.699219 -31.535156 C 2.699219 -31.65625 2.699219 -32.761719 2.699219 -33.007812 C 3.066406 -34.234375 3.3125 -38.160156 3.4375 -38.527344 C 3.679688 -39.511719 4.785156 -43.558594 5.277344 -44.542969 L 5.277344 -45.15625 L 9.078125 -55.460938 C 9.203125 -55.953125 10.796875 -58.652344 11.535156 -59.757812 C 11.535156 -59.757812 12.023438 -60.492188 12.148438 -60.492188 C 12.515625 -60.984375 14.722656 -64.789062 15.09375 -65.277344 C 15.09375 -65.402344 15.339844 -65.644531 15.460938 -65.644531 C 15.460938 -65.769531 16.441406 -67.488281 16.566406 -67.609375 C 17.179688 -68.347656 20.613281 -71.90625 21.351562 -72.761719 C 21.964844 -73.375 23.3125 -73.253906 24.050781 -73.5 C 24.417969 -73.621094 26.257812 -74.480469 26.75 -74.605469 C 26.871094 -74.726562 27.609375 -75.339844 27.730469 -75.339844 C 28.957031 -75.339844 30.183594 -75.21875 31.414062 -74.972656 C 31.414062 -74.972656 31.65625 -74.726562 31.65625 -74.605469 C 31.78125 -74.234375 31.78125 -73.375 31.65625 -73.132812 L 25.644531 -51.414062 L 10.183594 -33.742188 L 4.664062 -30.429688 L 3.066406 -30.429688 C 3.066406 -30.429688 2.820312 -31.042969 2.699219 -31.535156 Z M 35.707031 -40.738281 C 35.707031 -40.859375 35.828125 -41.105469 35.953125 -41.105469 C 36.320312 -42.578125 38.160156 -48.714844 38.40625 -50.0625 C 39.019531 -52.515625 38.898438 -55.214844 40.246094 -57.425781 L 40.613281 -56.8125 L 36.933594 -40.738281 C 36.8125 -40.371094 36.199219 -38.898438 35.707031 -39.386719 C 35.707031 -39.632812 35.707031 -40.492188 35.707031 -40.738281 Z M 28.46875 -54.113281 C 28.835938 -54.113281 28.835938 -53.5 28.46875 -53.5 C 28.222656 -53.5 28.222656 -54.113281 28.46875 -54.113281 Z M 41.226562 -62.210938 C 41.597656 -62.210938 41.597656 -61.597656 41.226562 -61.597656 C 40.984375 -61.597656 40.984375 -62.210938 41.226562 -62.210938 Z M 41.597656 -63.191406 C 41.964844 -63.191406 41.964844 -62.210938 41.597656 -62.210938 C 41.226562 -62.210938 41.226562 -63.191406 41.597656 -63.191406 Z M 33.007812 -77.917969 C 33.375 -77.917969 33.375 -77.304688 33.007812 -77.304688 C 32.761719 -77.304688 32.761719 -77.917969 33.007812 -77.917969 Z M 33.007812 -77.917969 "/></g></g></g></svg>