<svg xmlns="http://www.w3.org/2000/svg" xmlns:xlink="http://www.w3.org/1999/xlink" width="230" zoomAndPan="magnify" viewBox="0 0 172.5 44.999999" height="60" preserveAspectRatio="xMidYMid meet" version="1.0"><defs><g/><clipPath id="880152de3c"><path d="M 10.421875 1.53125 L 31.421875 1.53125 L 31.421875 25 L 10.421875 25 Z M 10.421875 1.53125 " clip-rule="nonzero"/></clipPath><clipPath id="3bb5c0de08"><path d="M 11 24 L 27 24 L 27 43.53125 L 11 43.53125 Z M 11 24 " clip-rule="nonzero"/></clipPath></defs><g fill="#ffffff" fill-opacity="1"><g transform="translate(33.551983, 18.522434)"><g><path d="M 9.671875 -1.0625 L 11.859375 -0.328125 L 11.859375 0.03125 L 5.203125 0 L 5.203125 -0.328125 L 7.359375 -1.0625 L 7.359375 -15.046875 L 3.234375 -15.046875 L 1.734375 -12.78125 L 1.296875 -12.78125 L 1.96875 -15.890625 L 15.078125 -15.890625 L 15.75 -12.78125 L 15.296875 -12.78125 L 13.8125 -15.046875 L 9.671875 -15.046875 Z M 9.671875 -1.0625 "/></g></g></g><g fill="#ffffff" fill-opacity="1"><g transform="translate(51.880005, 18.522434)"><g><path d="M 3.109375 -14.875 L 1.609375 -15.5 L 1.609375 -15.890625 L 6.765625 -15.890625 L 6.765625 -15.46875 L 5.25 -14.90625 L 5.25 -8.5625 L 14.40625 -8.5625 L 14.40625 -14.875 L 12.859375 -15.421875 L 12.859375 -15.890625 L 18.03125 -15.890625 L 18.03125 -15.453125 L 16.515625 -14.875 L 16.515625 -1.140625 L 18.03125 -0.375 L 18.03125 0 L 12.859375 0 L 12.859375 -0.375 L 14.40625 -1.140625 L 14.40625 -7.609375 L 5.25 -7.609375 L 5.25 -1.171875 L 6.765625 -0.375 L 6.765625 0 L 1.640625 0 L 1.640625 -0.34375 L 3.109375 -1.171875 Z M 3.109375 -14.875 "/></g></g></g><g fill="#ffffff" fill-opacity="1"><g transform="translate(72.495804, 18.522434)"><g><path d="M 1.859375 0.03125 L 1.859375 -0.375 L 3.359375 -1.140625 L 3.359375 -14.671875 L 1.859375 -15.578125 L 1.859375 -15.890625 L 13.953125 -15.890625 L 14.484375 -12.71875 L 14 -12.71875 L 12.484375 -15.046875 C 7.910156 -15.046875 5.625 -15.039062 5.625 -15.03125 L 5.625 -8.625 L 11.390625 -8.625 L 10.671875 -7.71875 L 5.625 -7.71875 L 5.625 -0.84375 L 12.484375 -0.84375 L 13.984375 -3.109375 L 14.484375 -3.109375 L 13.953125 0 Z M 1.859375 0.03125 "/></g></g></g><g fill="#ffffff" fill-opacity="1"><g transform="translate(89.878877, 18.522434)"><g/></g></g><g fill="#ffffff" fill-opacity="1"><g transform="translate(98.881726, 18.522434)"><g><path d="M 21.296875 -15.890625 L 21.296875 -15.546875 L 20 -14.96875 L 20 -1.046875 L 21.71875 -0.328125 L 21.71875 0.03125 L 15.96875 0.03125 L 15.96875 -0.328125 L 17.78125 -1.0625 L 17.78125 -13.53125 L 11.765625 -0.125 L 11 -0.125 L 4.953125 -13.40625 L 4.90625 -1.0625 L 6.5625 -0.328125 L 6.546875 0.03125 L 2.1875 0.03125 L 2.1875 -0.328125 L 3.953125 -1.0625 L 3.984375 -14.96875 L 2.640625 -15.546875 L 2.640625 -15.890625 L 6.046875 -15.890625 L 11.96875 -3.015625 L 17.8125 -15.890625 Z M 21.296875 -15.890625 "/></g></g></g><g fill="#ffffff" fill-opacity="1"><g transform="translate(123.302197, 18.522434)"><g><path d="M 1.859375 0.03125 L 1.859375 -0.375 L 3.359375 -1.140625 L 3.359375 -14.671875 L 1.859375 -15.578125 L 1.859375 -15.890625 L 13.953125 -15.890625 L 14.484375 -12.71875 L 14 -12.71875 L 12.484375 -15.046875 C 7.910156 -15.046875 5.625 -15.039062 5.625 -15.03125 L 5.625 -8.625 L 11.390625 -8.625 L 10.671875 -7.71875 L 5.625 -7.71875 L 5.625 -0.84375 L 12.484375 -0.84375 L 13.984375 -3.109375 L 14.484375 -3.109375 L 13.953125 0 Z M 1.859375 0.03125 "/></g></g></g><g fill="#ffffff" fill-opacity="1"><g transform="translate(140.685267, 18.522434)"><g><path d="M 14.84375 -14.875 L 12.890625 -15.546875 L 12.890625 -15.890625 L 17.734375 -15.890625 L 17.734375 -15.546875 L 15.84375 -14.875 L 15.84375 0 L 15.171875 0 L 4.578125 -13.65625 L 4.578125 -1.046875 L 6.296875 -0.296875 L 6.296875 0.046875 L 1.84375 0.046875 L 1.84375 -0.296875 L 3.5625 -1.046875 L 3.5625 -14.875 L 1.84375 -15.546875 L 1.84375 -15.890625 L 5.546875 -15.890625 C 6.785156 -14.484375 8.171875 -12.765625 9.703125 -10.734375 C 11.242188 -8.703125 12.957031 -6.34375 14.84375 -3.65625 Z M 14.84375 -14.875 "/></g></g></g><g fill="#ffffff" fill-opacity="1"><g transform="translate(161.192596, 18.522434)"><g/></g></g><g fill="#ffffff" fill-opacity="1"><g transform="translate(33.551983, 41.772432)"><g><path d="M 3.109375 -14.875 L 1.609375 -15.5 L 1.609375 -15.890625 L 6.765625 -15.890625 L 6.765625 -15.46875 L 5.25 -14.90625 L 5.25 -8.5625 L 14.40625 -8.5625 L 14.40625 -14.875 L 12.859375 -15.421875 L 12.859375 -15.890625 L 18.03125 -15.890625 L 18.03125 -15.453125 L 16.515625 -14.875 L 16.515625 -1.140625 L 18.03125 -0.375 L 18.03125 0 L 12.859375 0 L 12.859375 -0.375 L 14.40625 -1.140625 L 14.40625 -7.609375 L 5.25 -7.609375 L 5.25 -1.171875 L 6.765625 -0.375 L 6.765625 0 L 1.640625 0 L 1.640625 -0.34375 L 3.109375 -1.171875 Z M 3.109375 -14.875 "/></g></g></g><g fill="#ffffff" fill-opacity="1"><g transform="translate(54.167782, 41.772432)"><g><path d="M 1.984375 -7.9375 C 1.984375 -10.820312 2.640625 -12.921875 3.953125 -14.234375 C 5.273438 -15.554688 7.132812 -16.21875 9.53125 -16.21875 C 10.570312 -16.21875 11.554688 -16.054688 12.484375 -15.734375 C 13.410156 -15.421875 14.195312 -14.921875 14.84375 -14.234375 C 15.5 -13.535156 15.992188 -12.675781 16.328125 -11.65625 C 16.671875 -10.632812 16.84375 -9.394531 16.84375 -7.9375 C 16.84375 -6.476562 16.671875 -5.226562 16.328125 -4.1875 C 15.992188 -3.15625 15.5 -2.289062 14.84375 -1.59375 C 14.195312 -0.894531 13.410156 -0.378906 12.484375 -0.046875 C 11.554688 0.285156 10.570312 0.453125 9.53125 0.453125 C 8.351562 0.453125 7.296875 0.285156 6.359375 -0.046875 C 5.429688 -0.378906 4.644531 -0.890625 4 -1.578125 C 3.351562 -2.265625 2.851562 -3.132812 2.5 -4.1875 C 2.15625 -5.238281 1.984375 -6.488281 1.984375 -7.9375 Z M 14.578125 -7.90625 C 14.578125 -9.195312 14.414062 -10.316406 14.09375 -11.265625 C 13.78125 -12.210938 13.375 -12.992188 12.875 -13.609375 C 12.382812 -14.234375 11.820312 -14.695312 11.1875 -15 C 10.5625 -15.300781 9.929688 -15.453125 9.296875 -15.453125 C 8.722656 -15.453125 8.140625 -15.328125 7.546875 -15.078125 C 6.960938 -14.835938 6.429688 -14.425781 5.953125 -13.84375 C 5.484375 -13.269531 5.097656 -12.5 4.796875 -11.53125 C 4.503906 -10.570312 4.359375 -9.363281 4.359375 -7.90625 C 4.359375 -6.445312 4.523438 -5.234375 4.859375 -4.265625 C 5.203125 -3.304688 5.640625 -2.535156 6.171875 -1.953125 C 6.703125 -1.378906 7.289062 -0.972656 7.9375 -0.734375 C 8.582031 -0.492188 9.21875 -0.375 9.84375 -0.375 C 10.425781 -0.375 11 -0.519531 11.5625 -0.8125 C 12.125 -1.113281 12.628906 -1.578125 13.078125 -2.203125 C 13.523438 -2.828125 13.882812 -3.609375 14.15625 -4.546875 C 14.4375 -5.492188 14.578125 -6.613281 14.578125 -7.90625 Z M 14.578125 -7.90625 "/></g></g></g><g fill="#ffffff" fill-opacity="1"><g transform="translate(74.112167, 41.772432)"><g><path d="M 1.984375 -7.9375 C 1.984375 -10.820312 2.640625 -12.921875 3.953125 -14.234375 C 5.273438 -15.554688 7.132812 -16.21875 9.53125 -16.21875 C 10.570312 -16.21875 11.554688 -16.054688 12.484375 -15.734375 C 13.410156 -15.421875 14.195312 -14.921875 14.84375 -14.234375 C 15.5 -13.535156 15.992188 -12.675781 16.328125 -11.65625 C 16.671875 -10.632812 16.84375 -9.394531 16.84375 -7.9375 C 16.84375 -6.476562 16.671875 -5.226562 16.328125 -4.1875 C 15.992188 -3.15625 15.5 -2.289062 14.84375 -1.59375 C 14.195312 -0.894531 13.410156 -0.378906 12.484375 -0.046875 C 11.554688 0.285156 10.570312 0.453125 9.53125 0.453125 C 8.351562 0.453125 7.296875 0.285156 6.359375 -0.046875 C 5.429688 -0.378906 4.644531 -0.890625 4 -1.578125 C 3.351562 -2.265625 2.851562 -3.132812 2.5 -4.1875 C 2.15625 -5.238281 1.984375 -6.488281 1.984375 -7.9375 Z M 14.578125 -7.90625 C 14.578125 -9.195312 14.414062 -10.316406 14.09375 -11.265625 C 13.78125 -12.210938 13.375 -12.992188 12.875 -13.609375 C 12.382812 -14.234375 11.820312 -14.695312 11.1875 -15 C 10.5625 -15.300781 9.929688 -15.453125 9.296875 -15.453125 C 8.722656 -15.453125 8.140625 -15.328125 7.546875 -15.078125 C 6.960938 -14.835938 6.429688 -14.425781 5.953125 -13.84375 C 5.484375 -13.269531 5.097656 -12.5 4.796875 -11.53125 C 4.503906 -10.570312 4.359375 -9.363281 4.359375 -7.90625 C 4.359375 -6.445312 4.523438 -5.234375 4.859375 -4.265625 C 5.203125 -3.304688 5.640625 -2.535156 6.171875 -1.953125 C 6.703125 -1.378906 7.289062 -0.972656 7.9375 -0.734375 C 8.582031 -0.492188 9.21875 -0.375 9.84375 -0.375 C 10.425781 -0.375 11 -0.519531 11.5625 -0.8125 C 12.125 -1.113281 12.628906 -1.578125 13.078125 -2.203125 C 13.523438 -2.828125 13.882812 -3.609375 14.15625 -4.546875 C 14.4375 -5.492188 14.578125 -6.613281 14.578125 -7.90625 Z M 14.578125 -7.90625 "/></g></g></g><g fill="#ffffff" fill-opacity="1"><g transform="translate(94.056554, 41.772432)"><g><path d="M 14.484375 -8.140625 C 14.484375 -9.378906 14.328125 -10.425781 14.015625 -11.28125 C 13.710938 -12.132812 13.28125 -12.832031 12.71875 -13.375 C 12.425781 -13.664062 12.128906 -13.914062 11.828125 -14.125 C 11.535156 -14.34375 11.203125 -14.523438 10.828125 -14.671875 C 10.453125 -14.828125 10.03125 -14.945312 9.5625 -15.03125 C 9.101562 -15.113281 8.578125 -15.15625 7.984375 -15.15625 L 5.921875 -15.15625 L 5.921875 -0.875 L 9.15625 -0.875 C 11.039062 -0.875 12.398438 -1.460938 13.234375 -2.640625 C 14.066406 -3.828125 14.484375 -5.660156 14.484375 -8.140625 Z M 8.6875 -15.890625 C 9.925781 -15.890625 11.046875 -15.75 12.046875 -15.46875 C 13.054688 -15.1875 13.910156 -14.734375 14.609375 -14.109375 C 15.316406 -13.492188 15.863281 -12.691406 16.25 -11.703125 C 16.644531 -10.710938 16.84375 -9.503906 16.84375 -8.078125 C 16.84375 -5.460938 16.207031 -3.460938 14.9375 -2.078125 C 13.664062 -0.691406 11.738281 0 9.15625 0 C 8.457031 0 7.722656 -0.00390625 6.953125 -0.015625 C 6.179688 -0.0351562 5.476562 -0.046875 4.84375 -0.046875 L 1.8125 -0.046875 L 1.8125 -0.421875 L 3.75 -1.21875 L 3.75 -14.75 L 1.8125 -15.46875 L 1.8125 -15.890625 Z M 8.6875 -15.890625 "/></g></g></g><g clip-path="url(#880152de3c)"><path fill="#ffffff" d="M 13.757812 14.175781 C 12.445312 9.425781 10.839844 5.035156 10.839844 5.035156 C 10.621094 4.210938 13.167969 2.902344 16.527344 2.113281 C 18.199219 1.71875 19.753906 1.53125 20.925781 1.539062 C 21.070312 2.039062 21.214844 2.539062 21.359375 3.042969 C 21.691406 4.199219 22.023438 5.355469 22.359375 6.511719 C 22.730469 7.8125 23.105469 9.109375 23.480469 10.40625 C 23.421875 10.089844 23.367188 9.777344 23.3125 9.460938 C 22.84375 6.84375 22.378906 4.226562 21.914062 1.605469 C 22.539062 1.699219 22.933594 1.890625 23.007812 2.175781 C 23.007812 2.175781 23.71875 6.390625 24.84375 10.945312 C 24.007812 10.976562 23.179688 11.050781 22.351562 11.175781 C 20.972656 11.390625 19.617188 11.726562 18.308594 12.191406 C 17.757812 12.386719 17.214844 12.605469 16.6875 12.84375 C 18.015625 12.355469 19.398438 12.003906 20.800781 11.785156 C 22.269531 11.554688 23.761719 11.472656 25.246094 11.546875 C 27.53125 11.664062 29.105469 12.160156 29.222656 12.605469 C 29.347656 13.070312 27.914062 13.449219 25.640625 13.9375 C 25.804688 14.570312 25.945312 15.148438 25.964844 15.308594 C 26.007812 15.667969 26.003906 16.386719 26.003906 16.386719 C 26.003906 16.386719 26.234375 16.644531 26.4375 16.984375 C 26.722656 17.453125 27.015625 18.082031 27.140625 18.367188 C 27.226562 18.566406 27.167969 18.839844 26.9375 18.9375 C 26.667969 19.050781 26.742188 19.007812 26.070312 19.183594 C 25.96875 19.679688 26.308594 19.898438 26.296875 20.109375 C 26.289062 20.21875 26.214844 20.300781 26.148438 20.355469 C 26.203125 20.378906 26.253906 20.40625 26.308594 20.425781 C 26.445312 20.46875 26.585938 20.511719 26.71875 20.566406 C 26.996094 20.671875 27.253906 20.804688 27.488281 20.984375 C 27.960938 21.347656 28.285156 21.84375 28.617188 22.320312 C 28.78125 22.554688 28.949219 22.78125 29.125 23.003906 C 29.179688 23.070312 29.285156 23.246094 29.382812 23.246094 C 29.492188 23.242188 29.542969 23.042969 29.578125 22.972656 C 29.703125 22.738281 29.878906 22.683594 30.15625 22.683594 C 30.421875 22.683594 30.703125 22.742188 30.933594 22.871094 C 31.414062 23.136719 31.226562 23.882812 31.058594 24.289062 C 30.851562 24.804688 30.347656 25.089844 29.761719 24.976562 C 29.207031 24.875 28.925781 24.398438 28.6875 23.960938 C 28.40625 23.453125 28.136719 22.9375 27.859375 22.429688 C 27.566406 21.890625 27.277344 21.257812 26.734375 20.902344 C 26.609375 20.820312 26.472656 20.75 26.335938 20.691406 C 26.308594 20.679688 26.277344 20.671875 26.25 20.664062 C 26.257812 20.695312 26.265625 20.726562 26.261719 20.765625 C 26.234375 21.1875 25.984375 21.101562 25.917969 21.238281 C 25.757812 21.589844 25.921875 21.878906 25.972656 22.347656 C 26.015625 22.785156 25.78125 22.996094 25.34375 23.082031 C 24.839844 23.183594 23.15625 22.875 22.675781 22.667969 C 22.632812 22.726562 22.566406 23.171875 22.480469 23.785156 C 22.332031 24.011719 21.644531 24.351562 20.96875 24.351562 C 19.6875 24.351562 16.804688 23.625 15.5 22.25 C 15.707031 20.984375 15.738281 19.738281 15.632812 19.5625 C 15.484375 19.320312 14.441406 18.671875 14.164062 16.640625 C 12.054688 17.171875 10.667969 17.433594 10.550781 16.992188 C 10.429688 16.535156 11.664062 15.332031 13.757812 14.175781 Z M 13.757812 14.175781 " fill-opacity="1" fill-rule="nonzero"/></g><g clip-path="url(#3bb5c0de08)"><path fill="#ffffff" d="M 22.882812 25.089844 L 24.765625 25.855469 C 25.707031 27.746094 26.160156 30.972656 26.160156 30.972656 L 24.328125 31.03125 L 25.90625 32.171875 C 24.902344 38.570312 22.308594 43.527344 22.308594 43.527344 C 22.308594 43.527344 16.644531 34.195312 12.9375 31.980469 L 15.53125 30.574219 L 12.253906 31.054688 L 11.78125 25.800781 L 14.097656 24.546875 C 14.097656 24.546875 19.640625 30.589844 22.164062 38.570312 C 22.917969 35.101562 23.246094 30.386719 22.882812 25.089844 Z M 22.882812 25.089844 " fill-opacity="1" fill-rule="nonzero"/></g><path fill="#ffffff" d="M 17.535156 25.589844 C 17.546875 25.242188 17.582031 24.925781 17.636719 24.648438 C 17.675781 24.425781 17.914062 24.300781 18.113281 24.402344 L 19.949219 25.332031 C 20.070312 25.183594 20.261719 25.085938 20.476562 25.078125 C 20.71875 25.066406 20.9375 25.171875 21.074219 25.34375 L 22.023438 24.664062 C 22.136719 24.582031 22.292969 24.644531 22.328125 24.78125 C 22.394531 25.046875 22.453125 25.355469 22.484375 25.699219 C 22.519531 26.089844 22.515625 26.441406 22.492188 26.742188 C 22.480469 26.898438 22.3125 26.984375 22.183594 26.898438 L 21.085938 26.144531 C 20.960938 26.304688 20.765625 26.410156 20.539062 26.421875 C 20.304688 26.429688 20.09375 26.332031 19.957031 26.175781 L 18.140625 27.175781 C 17.945312 27.285156 17.707031 27.175781 17.664062 26.957031 C 17.582031 26.578125 17.523438 26.117188 17.535156 25.589844 Z M 17.535156 25.589844 " fill-opacity="1" fill-rule="nonzero"/></svg>